solid OpenSCAD_Model
  facet normal -1 0 0
    outer loop
      vertex -21.4 -10.5 0
      vertex -21.4 10.5 4
      vertex -21.4 10.5 0
    endloop
  endfacet
  facet normal -1 -0 0
    outer loop
      vertex -21.4 10.5 4
      vertex -21.4 -10.5 0
      vertex -21.4 -10.5 4
    endloop
  endfacet
  facet normal 1 -0 0
    outer loop
      vertex -23.6 -10.5 4
      vertex -23.6 10.5 0
      vertex -23.6 10.5 4
    endloop
  endfacet
  facet normal 1 0 0
    outer loop
      vertex -23.6 10.5 0
      vertex -23.6 -10.5 4
      vertex -23.6 -10.5 0
    endloop
  endfacet
  facet normal 0 -1 0
    outer loop
      vertex -23.6 10.5 0
      vertex -21.4 10.5 4
      vertex -23.6 10.5 4
    endloop
  endfacet
  facet normal 0 -1 -0
    outer loop
      vertex -21.4 10.5 4
      vertex -23.6 10.5 0
      vertex -21.4 10.5 0
    endloop
  endfacet
  facet normal 0 1 -0
    outer loop
      vertex -21.4 -10.5 0
      vertex -23.6 -10.5 4
      vertex -21.4 -10.5 4
    endloop
  endfacet
  facet normal 0 1 0
    outer loop
      vertex -23.6 -10.5 4
      vertex -21.4 -10.5 0
      vertex -23.6 -10.5 0
    endloop
  endfacet
  facet normal -1 0 0
    outer loop
      vertex 23.6 -10.5 0
      vertex 23.6 10.5 4
      vertex 23.6 10.5 0
    endloop
  endfacet
  facet normal -1 -0 0
    outer loop
      vertex 23.6 10.5 4
      vertex 23.6 -10.5 0
      vertex 23.6 -10.5 4
    endloop
  endfacet
  facet normal 1 -0 0
    outer loop
      vertex 21.4 -10.5 4
      vertex 21.4 10.5 0
      vertex 21.4 10.5 4
    endloop
  endfacet
  facet normal 1 0 0
    outer loop
      vertex 21.4 10.5 0
      vertex 21.4 -10.5 4
      vertex 21.4 -10.5 0
    endloop
  endfacet
  facet normal 0 -1 0
    outer loop
      vertex 21.4 10.5 0
      vertex 23.6 10.5 4
      vertex 21.4 10.5 4
    endloop
  endfacet
  facet normal 0 -1 -0
    outer loop
      vertex 23.6 10.5 4
      vertex 21.4 10.5 0
      vertex 23.6 10.5 0
    endloop
  endfacet
  facet normal 0 1 -0
    outer loop
      vertex 23.6 -10.5 0
      vertex 21.4 -10.5 4
      vertex 23.6 -10.5 4
    endloop
  endfacet
  facet normal 0 1 0
    outer loop
      vertex 21.4 -10.5 4
      vertex 23.6 -10.5 0
      vertex 21.4 -10.5 0
    endloop
  endfacet
  facet normal 0.514246 -0.857643 0
    outer loop
      vertex 23.4142 -13.6458 0
      vertex 23.6667 -13.4944 4
      vertex 23.4142 -13.6458 4
    endloop
  endfacet
  facet normal 0.514246 -0.857643 0
    outer loop
      vertex 23.6667 -13.4944 4
      vertex 23.4142 -13.6458 0
      vertex 23.6667 -13.4944 0
    endloop
  endfacet
  facet normal -0.4274 0.904063 0
    outer loop
      vertex -23.1481 13.7716 0
      vertex -23.4142 13.6458 4
      vertex -23.1481 13.7716 4
    endloop
  endfacet
  facet normal -0.4274 0.904063 0
    outer loop
      vertex -23.4142 13.6458 4
      vertex -23.1481 13.7716 0
      vertex -23.4142 13.6458 0
    endloop
  endfacet
  facet normal -0.671607 -0.740908 0
    outer loop
      vertex -24.1213 -13.1213 0
      vertex -23.9032 -13.319 4
      vertex -24.1213 -13.1213 4
    endloop
  endfacet
  facet normal -0.671607 -0.740908 -0
    outer loop
      vertex -23.9032 -13.319 4
      vertex -24.1213 -13.1213 0
      vertex -23.9032 -13.319 0
    endloop
  endfacet
  facet normal -0.740908 -0.671607 0
    outer loop
      vertex -24.1213 -13.1213 0
      vertex -24.319 -12.9032 4
      vertex -24.319 -12.9032 0
    endloop
  endfacet
  facet normal -0.740908 -0.671607 0
    outer loop
      vertex -24.319 -12.9032 4
      vertex -24.1213 -13.1213 0
      vertex -24.1213 -13.1213 4
    endloop
  endfacet
  facet normal 0.904063 -0.4274 0
    outer loop
      vertex 24.6458 -12.4142 4
      vertex 24.7716 -12.1481 0
      vertex 24.7716 -12.1481 4
    endloop
  endfacet
  facet normal 0.904063 -0.4274 0
    outer loop
      vertex 24.7716 -12.1481 0
      vertex 24.6458 -12.4142 4
      vertex 24.6458 -12.4142 0
    endloop
  endfacet
  facet normal 0.336831 -0.941565 0
    outer loop
      vertex 22.8708 -13.8708 0
      vertex 23.1481 -13.7716 4
      vertex 22.8708 -13.8708 4
    endloop
  endfacet
  facet normal 0.336831 -0.941565 0
    outer loop
      vertex 23.1481 -13.7716 4
      vertex 22.8708 -13.8708 0
      vertex 23.1481 -13.7716 0
    endloop
  endfacet
  facet normal 0.4274 -0.904063 0
    outer loop
      vertex 23.1481 -13.7716 0
      vertex 23.4142 -13.6458 4
      vertex 23.1481 -13.7716 4
    endloop
  endfacet
  facet normal 0.4274 -0.904063 0
    outer loop
      vertex 23.4142 -13.6458 4
      vertex 23.1481 -13.7716 0
      vertex 23.4142 -13.6458 0
    endloop
  endfacet
  facet normal 0.740908 -0.671607 0
    outer loop
      vertex 24.1213 -13.1213 4
      vertex 24.319 -12.9032 0
      vertex 24.319 -12.9032 4
    endloop
  endfacet
  facet normal 0.740908 -0.671607 0
    outer loop
      vertex 24.319 -12.9032 0
      vertex 24.1213 -13.1213 4
      vertex 24.1213 -13.1213 0
    endloop
  endfacet
  facet normal -0.671607 0.740908 0
    outer loop
      vertex -23.9032 13.319 0
      vertex -24.1213 13.1213 4
      vertex -23.9032 13.319 4
    endloop
  endfacet
  facet normal -0.671607 0.740908 0
    outer loop
      vertex -24.1213 13.1213 4
      vertex -23.9032 13.319 0
      vertex -24.1213 13.1213 0
    endloop
  endfacet
  facet normal -0.514246 0.857643 0
    outer loop
      vertex -23.4142 13.6458 0
      vertex -23.6667 13.4944 4
      vertex -23.4142 13.6458 4
    endloop
  endfacet
  facet normal -0.514246 0.857643 0
    outer loop
      vertex -23.6667 13.4944 4
      vertex -23.4142 13.6458 0
      vertex -23.6667 13.4944 0
    endloop
  endfacet
  facet normal 0.0492431 0.998787 -0
    outer loop
      vertex 22.2941 13.9855 0
      vertex 22 14 4
      vertex 22.2941 13.9855 4
    endloop
  endfacet
  facet normal 0.0492431 0.998787 0
    outer loop
      vertex 22 14 4
      vertex 22.2941 13.9855 0
      vertex 22 14 0
    endloop
  endfacet
  facet normal 0.146413 0.989224 -0
    outer loop
      vertex 22.5853 13.9424 0
      vertex 22.2941 13.9855 4
      vertex 22.5853 13.9424 4
    endloop
  endfacet
  facet normal 0.146413 0.989224 0
    outer loop
      vertex 22.2941 13.9855 4
      vertex 22.5853 13.9424 0
      vertex 22.2941 13.9855 0
    endloop
  endfacet
  facet normal -0.998787 0.0492431 0
    outer loop
      vertex -25 11 0
      vertex -24.9855 11.2941 4
      vertex -24.9855 11.2941 0
    endloop
  endfacet
  facet normal -0.998787 0.0492431 0
    outer loop
      vertex -24.9855 11.2941 4
      vertex -25 11 0
      vertex -25 11 4
    endloop
  endfacet
  facet normal -0.941565 -0.336831 0
    outer loop
      vertex -24.7716 -12.1481 0
      vertex -24.8708 -11.8708 4
      vertex -24.8708 -11.8708 0
    endloop
  endfacet
  facet normal -0.941565 -0.336831 0
    outer loop
      vertex -24.8708 -11.8708 4
      vertex -24.7716 -12.1481 0
      vertex -24.7716 -12.1481 4
    endloop
  endfacet
  facet normal -0.514246 -0.857643 0
    outer loop
      vertex -23.6667 -13.4944 0
      vertex -23.4142 -13.6458 4
      vertex -23.6667 -13.4944 4
    endloop
  endfacet
  facet normal -0.514246 -0.857643 -0
    outer loop
      vertex -23.4142 -13.6458 4
      vertex -23.6667 -13.4944 0
      vertex -23.4142 -13.6458 0
    endloop
  endfacet
  facet normal -0.336831 -0.941565 0
    outer loop
      vertex -23.1481 -13.7716 0
      vertex -22.8708 -13.8708 4
      vertex -23.1481 -13.7716 4
    endloop
  endfacet
  facet normal -0.336831 -0.941565 -0
    outer loop
      vertex -22.8708 -13.8708 4
      vertex -23.1481 -13.7716 0
      vertex -22.8708 -13.8708 0
    endloop
  endfacet
  facet normal 0.595699 0.803208 -0
    outer loop
      vertex 23.9032 13.319 0
      vertex 23.6667 13.4944 4
      vertex 23.9032 13.319 4
    endloop
  endfacet
  facet normal 0.595699 0.803208 0
    outer loop
      vertex 23.6667 13.4944 4
      vertex 23.9032 13.319 0
      vertex 23.6667 13.4944 0
    endloop
  endfacet
  facet normal 0.803208 0.595699 0
    outer loop
      vertex 24.4944 12.6667 4
      vertex 24.319 12.9032 0
      vertex 24.319 12.9032 4
    endloop
  endfacet
  facet normal 0.803208 0.595699 0
    outer loop
      vertex 24.319 12.9032 0
      vertex 24.4944 12.6667 4
      vertex 24.4944 12.6667 0
    endloop
  endfacet
  facet normal 0.857643 0.514246 0
    outer loop
      vertex 24.6458 12.4142 4
      vertex 24.4944 12.6667 0
      vertex 24.4944 12.6667 4
    endloop
  endfacet
  facet normal 0.857643 0.514246 0
    outer loop
      vertex 24.4944 12.6667 0
      vertex 24.6458 12.4142 4
      vertex 24.6458 12.4142 0
    endloop
  endfacet
  facet normal -0.243255 -0.969962 0
    outer loop
      vertex -22.8708 -13.8708 0
      vertex -22.5853 -13.9424 4
      vertex -22.8708 -13.8708 4
    endloop
  endfacet
  facet normal -0.243255 -0.969962 -0
    outer loop
      vertex -22.5853 -13.9424 4
      vertex -22.8708 -13.8708 0
      vertex -22.5853 -13.9424 0
    endloop
  endfacet
  facet normal 0.0492431 -0.998787 0
    outer loop
      vertex 22 -14 0
      vertex 22.2941 -13.9855 4
      vertex 22 -14 4
    endloop
  endfacet
  facet normal 0.0492431 -0.998787 0
    outer loop
      vertex 22.2941 -13.9855 4
      vertex 22 -14 0
      vertex 22.2941 -13.9855 0
    endloop
  endfacet
  facet normal -0.595699 -0.803208 0
    outer loop
      vertex -23.9032 -13.319 0
      vertex -23.6667 -13.4944 4
      vertex -23.9032 -13.319 4
    endloop
  endfacet
  facet normal -0.595699 -0.803208 -0
    outer loop
      vertex -23.6667 -13.4944 4
      vertex -23.9032 -13.319 0
      vertex -23.6667 -13.4944 0
    endloop
  endfacet
  facet normal -0.998787 -0.0492431 0
    outer loop
      vertex -24.9855 -11.2941 0
      vertex -25 -11 4
      vertex -25 -11 0
    endloop
  endfacet
  facet normal -0.998787 -0.0492431 0
    outer loop
      vertex -25 -11 4
      vertex -24.9855 -11.2941 0
      vertex -24.9855 -11.2941 4
    endloop
  endfacet
  facet normal -0.146413 -0.989224 0
    outer loop
      vertex -22.5853 -13.9424 0
      vertex -22.2941 -13.9855 4
      vertex -22.5853 -13.9424 4
    endloop
  endfacet
  facet normal -0.146413 -0.989224 -0
    outer loop
      vertex -22.2941 -13.9855 4
      vertex -22.5853 -13.9424 0
      vertex -22.2941 -13.9855 0
    endloop
  endfacet
  facet normal 0 1 -0
    outer loop
      vertex 22 14 0
      vertex 3 14 4
      vertex 22 14 4
    endloop
  endfacet
  facet normal 0 1 0
    outer loop
      vertex 3 14 4
      vertex 22 14 0
      vertex 3 14 0
    endloop
  endfacet
  facet normal 0 1 -0
    outer loop
      vertex -3 14 0
      vertex -22 14 4
      vertex -3 14 4
    endloop
  endfacet
  facet normal 0 1 0
    outer loop
      vertex -22 14 4
      vertex -3 14 0
      vertex -22 14 0
    endloop
  endfacet
  facet normal -1 0 0
    outer loop
      vertex -25 -11 0
      vertex -25 11 4
      vertex -25 11 0
    endloop
  endfacet
  facet normal -1 -0 0
    outer loop
      vertex -25 11 4
      vertex -25 -11 0
      vertex -25 -11 4
    endloop
  endfacet
  facet normal 0.146413 -0.989224 0
    outer loop
      vertex 22.2941 -13.9855 0
      vertex 22.5853 -13.9424 4
      vertex 22.2941 -13.9855 4
    endloop
  endfacet
  facet normal 0.146413 -0.989224 0
    outer loop
      vertex 22.5853 -13.9424 4
      vertex 22.2941 -13.9855 0
      vertex 22.5853 -13.9424 0
    endloop
  endfacet
  facet normal 0 -1 0
    outer loop
      vertex -22 -14 0
      vertex 22 -14 4
      vertex -22 -14 4
    endloop
  endfacet
  facet normal 0 -1 -0
    outer loop
      vertex 22 -14 4
      vertex -22 -14 0
      vertex 22 -14 0
    endloop
  endfacet
  facet normal 0.243255 -0.969962 0
    outer loop
      vertex 22.5853 -13.9424 0
      vertex 22.8708 -13.8708 4
      vertex 22.5853 -13.9424 4
    endloop
  endfacet
  facet normal 0.243255 -0.969962 0
    outer loop
      vertex 22.8708 -13.8708 4
      vertex 22.5853 -13.9424 0
      vertex 22.8708 -13.8708 0
    endloop
  endfacet
  facet normal -0.0492431 0.998787 0
    outer loop
      vertex -22 14 0
      vertex -22.2941 13.9855 4
      vertex -22 14 4
    endloop
  endfacet
  facet normal -0.0492431 0.998787 0
    outer loop
      vertex -22.2941 13.9855 4
      vertex -22 14 0
      vertex -22.2941 13.9855 0
    endloop
  endfacet
  facet normal -0.803208 -0.595699 0
    outer loop
      vertex -24.319 -12.9032 0
      vertex -24.4944 -12.6667 4
      vertex -24.4944 -12.6667 0
    endloop
  endfacet
  facet normal -0.803208 -0.595699 0
    outer loop
      vertex -24.4944 -12.6667 4
      vertex -24.319 -12.9032 0
      vertex -24.319 -12.9032 4
    endloop
  endfacet
  facet normal 0.336831 0.941565 -0
    outer loop
      vertex 23.1481 13.7716 0
      vertex 22.8708 13.8708 4
      vertex 23.1481 13.7716 4
    endloop
  endfacet
  facet normal 0.336831 0.941565 0
    outer loop
      vertex 22.8708 13.8708 4
      vertex 23.1481 13.7716 0
      vertex 22.8708 13.8708 0
    endloop
  endfacet
  facet normal 1 -0 0
    outer loop
      vertex 25 -11 4
      vertex 25 11 0
      vertex 25 11 4
    endloop
  endfacet
  facet normal 1 0 0
    outer loop
      vertex 25 11 0
      vertex 25 -11 4
      vertex 25 -11 0
    endloop
  endfacet
  facet normal 0.4274 0.904063 -0
    outer loop
      vertex 23.4142 13.6458 0
      vertex 23.1481 13.7716 4
      vertex 23.4142 13.6458 4
    endloop
  endfacet
  facet normal 0.4274 0.904063 0
    outer loop
      vertex 23.1481 13.7716 4
      vertex 23.4142 13.6458 0
      vertex 23.1481 13.7716 0
    endloop
  endfacet
  facet normal -0.969962 0.243255 0
    outer loop
      vertex -24.9424 11.5853 0
      vertex -24.8708 11.8708 4
      vertex -24.8708 11.8708 0
    endloop
  endfacet
  facet normal -0.969962 0.243255 0
    outer loop
      vertex -24.8708 11.8708 4
      vertex -24.9424 11.5853 0
      vertex -24.9424 11.5853 4
    endloop
  endfacet
  facet normal -0.969962 -0.243255 0
    outer loop
      vertex -24.8708 -11.8708 0
      vertex -24.9424 -11.5853 4
      vertex -24.9424 -11.5853 0
    endloop
  endfacet
  facet normal -0.969962 -0.243255 0
    outer loop
      vertex -24.9424 -11.5853 4
      vertex -24.8708 -11.8708 0
      vertex -24.8708 -11.8708 4
    endloop
  endfacet
  facet normal 0.243255 0.969962 -0
    outer loop
      vertex 22.8708 13.8708 0
      vertex 22.5853 13.9424 4
      vertex 22.8708 13.8708 4
    endloop
  endfacet
  facet normal 0.243255 0.969962 0
    outer loop
      vertex 22.5853 13.9424 4
      vertex 22.8708 13.8708 0
      vertex 22.5853 13.9424 0
    endloop
  endfacet
  facet normal -0.857643 -0.514246 0
    outer loop
      vertex -24.4944 -12.6667 0
      vertex -24.6458 -12.4142 4
      vertex -24.6458 -12.4142 0
    endloop
  endfacet
  facet normal -0.857643 -0.514246 0
    outer loop
      vertex -24.6458 -12.4142 4
      vertex -24.4944 -12.6667 0
      vertex -24.4944 -12.6667 4
    endloop
  endfacet
  facet normal -0.243255 0.969962 0
    outer loop
      vertex -22.5853 13.9424 0
      vertex -22.8708 13.8708 4
      vertex -22.5853 13.9424 4
    endloop
  endfacet
  facet normal -0.243255 0.969962 0
    outer loop
      vertex -22.8708 13.8708 4
      vertex -22.5853 13.9424 0
      vertex -22.8708 13.8708 0
    endloop
  endfacet
  facet normal -0.336831 0.941565 0
    outer loop
      vertex -22.8708 13.8708 0
      vertex -23.1481 13.7716 4
      vertex -22.8708 13.8708 4
    endloop
  endfacet
  facet normal -0.336831 0.941565 0
    outer loop
      vertex -23.1481 13.7716 4
      vertex -22.8708 13.8708 0
      vertex -23.1481 13.7716 0
    endloop
  endfacet
  facet normal -0.595699 0.803208 0
    outer loop
      vertex -23.6667 13.4944 0
      vertex -23.9032 13.319 4
      vertex -23.6667 13.4944 4
    endloop
  endfacet
  facet normal -0.595699 0.803208 0
    outer loop
      vertex -23.9032 13.319 4
      vertex -23.6667 13.4944 0
      vertex -23.9032 13.319 0
    endloop
  endfacet
  facet normal 0.989224 -0.146413 0
    outer loop
      vertex 24.9424 -11.5853 4
      vertex 24.9855 -11.2941 0
      vertex 24.9855 -11.2941 4
    endloop
  endfacet
  facet normal 0.989224 -0.146413 0
    outer loop
      vertex 24.9855 -11.2941 0
      vertex 24.9424 -11.5853 4
      vertex 24.9424 -11.5853 0
    endloop
  endfacet
  facet normal 0.514246 0.857643 -0
    outer loop
      vertex 23.6667 13.4944 0
      vertex 23.4142 13.6458 4
      vertex 23.6667 13.4944 4
    endloop
  endfacet
  facet normal 0.514246 0.857643 0
    outer loop
      vertex 23.4142 13.6458 4
      vertex 23.6667 13.4944 0
      vertex 23.4142 13.6458 0
    endloop
  endfacet
  facet normal -0.0492431 -0.998787 0
    outer loop
      vertex -22.2941 -13.9855 0
      vertex -22 -14 4
      vertex -22.2941 -13.9855 4
    endloop
  endfacet
  facet normal -0.0492431 -0.998787 -0
    outer loop
      vertex -22 -14 4
      vertex -22.2941 -13.9855 0
      vertex -22 -14 0
    endloop
  endfacet
  facet normal 0.941565 0.336831 0
    outer loop
      vertex 24.8708 11.8708 4
      vertex 24.7716 12.1481 0
      vertex 24.7716 12.1481 4
    endloop
  endfacet
  facet normal 0.941565 0.336831 0
    outer loop
      vertex 24.7716 12.1481 0
      vertex 24.8708 11.8708 4
      vertex 24.8708 11.8708 0
    endloop
  endfacet
  facet normal 0.941565 -0.336831 0
    outer loop
      vertex 24.7716 -12.1481 4
      vertex 24.8708 -11.8708 0
      vertex 24.8708 -11.8708 4
    endloop
  endfacet
  facet normal 0.941565 -0.336831 0
    outer loop
      vertex 24.8708 -11.8708 0
      vertex 24.7716 -12.1481 4
      vertex 24.7716 -12.1481 0
    endloop
  endfacet
  facet normal -0.989224 0.146413 0
    outer loop
      vertex -24.9855 11.2941 0
      vertex -24.9424 11.5853 4
      vertex -24.9424 11.5853 0
    endloop
  endfacet
  facet normal -0.989224 0.146413 0
    outer loop
      vertex -24.9424 11.5853 4
      vertex -24.9855 11.2941 0
      vertex -24.9855 11.2941 4
    endloop
  endfacet
  facet normal -0.857643 0.514246 0
    outer loop
      vertex -24.6458 12.4142 0
      vertex -24.4944 12.6667 4
      vertex -24.4944 12.6667 0
    endloop
  endfacet
  facet normal -0.857643 0.514246 0
    outer loop
      vertex -24.4944 12.6667 4
      vertex -24.6458 12.4142 0
      vertex -24.6458 12.4142 4
    endloop
  endfacet
  facet normal -0.146413 0.989224 0
    outer loop
      vertex -22.2941 13.9855 0
      vertex -22.5853 13.9424 4
      vertex -22.2941 13.9855 4
    endloop
  endfacet
  facet normal -0.146413 0.989224 0
    outer loop
      vertex -22.5853 13.9424 4
      vertex -22.2941 13.9855 0
      vertex -22.5853 13.9424 0
    endloop
  endfacet
  facet normal -0.740908 0.671607 0
    outer loop
      vertex -24.319 12.9032 0
      vertex -24.1213 13.1213 4
      vertex -24.1213 13.1213 0
    endloop
  endfacet
  facet normal -0.740908 0.671607 0
    outer loop
      vertex -24.1213 13.1213 4
      vertex -24.319 12.9032 0
      vertex -24.319 12.9032 4
    endloop
  endfacet
  facet normal 0.969962 0.243255 0
    outer loop
      vertex 24.9424 11.5853 4
      vertex 24.8708 11.8708 0
      vertex 24.8708 11.8708 4
    endloop
  endfacet
  facet normal 0.969962 0.243255 0
    outer loop
      vertex 24.8708 11.8708 0
      vertex 24.9424 11.5853 4
      vertex 24.9424 11.5853 0
    endloop
  endfacet
  facet normal 0.989224 0.146413 0
    outer loop
      vertex 24.9855 11.2941 4
      vertex 24.9424 11.5853 0
      vertex 24.9424 11.5853 4
    endloop
  endfacet
  facet normal 0.989224 0.146413 0
    outer loop
      vertex 24.9424 11.5853 0
      vertex 24.9855 11.2941 4
      vertex 24.9855 11.2941 0
    endloop
  endfacet
  facet normal -0.4274 -0.904063 0
    outer loop
      vertex -23.4142 -13.6458 0
      vertex -23.1481 -13.7716 4
      vertex -23.4142 -13.6458 4
    endloop
  endfacet
  facet normal -0.4274 -0.904063 -0
    outer loop
      vertex -23.1481 -13.7716 4
      vertex -23.4142 -13.6458 0
      vertex -23.1481 -13.7716 0
    endloop
  endfacet
  facet normal 0.969962 -0.243255 0
    outer loop
      vertex 24.8708 -11.8708 4
      vertex 24.9424 -11.5853 0
      vertex 24.9424 -11.5853 4
    endloop
  endfacet
  facet normal 0.969962 -0.243255 0
    outer loop
      vertex 24.9424 -11.5853 0
      vertex 24.8708 -11.8708 4
      vertex 24.8708 -11.8708 0
    endloop
  endfacet
  facet normal -0.803208 0.595699 0
    outer loop
      vertex -24.4944 12.6667 0
      vertex -24.319 12.9032 4
      vertex -24.319 12.9032 0
    endloop
  endfacet
  facet normal -0.803208 0.595699 0
    outer loop
      vertex -24.319 12.9032 4
      vertex -24.4944 12.6667 0
      vertex -24.4944 12.6667 4
    endloop
  endfacet
  facet normal -0.941565 0.336831 0
    outer loop
      vertex -24.8708 11.8708 0
      vertex -24.7716 12.1481 4
      vertex -24.7716 12.1481 0
    endloop
  endfacet
  facet normal -0.941565 0.336831 0
    outer loop
      vertex -24.7716 12.1481 4
      vertex -24.8708 11.8708 0
      vertex -24.8708 11.8708 4
    endloop
  endfacet
  facet normal -0.904063 0.4274 0
    outer loop
      vertex -24.7716 12.1481 0
      vertex -24.6458 12.4142 4
      vertex -24.6458 12.4142 0
    endloop
  endfacet
  facet normal -0.904063 0.4274 0
    outer loop
      vertex -24.6458 12.4142 4
      vertex -24.7716 12.1481 0
      vertex -24.7716 12.1481 4
    endloop
  endfacet
  facet normal 0.904063 0.4274 0
    outer loop
      vertex 24.7716 12.1481 4
      vertex 24.6458 12.4142 0
      vertex 24.6458 12.4142 4
    endloop
  endfacet
  facet normal 0.904063 0.4274 0
    outer loop
      vertex 24.6458 12.4142 0
      vertex 24.7716 12.1481 4
      vertex 24.7716 12.1481 0
    endloop
  endfacet
  facet normal -0.989224 -0.146413 0
    outer loop
      vertex -24.9424 -11.5853 0
      vertex -24.9855 -11.2941 4
      vertex -24.9855 -11.2941 0
    endloop
  endfacet
  facet normal -0.989224 -0.146413 0
    outer loop
      vertex -24.9855 -11.2941 4
      vertex -24.9424 -11.5853 0
      vertex -24.9424 -11.5853 4
    endloop
  endfacet
  facet normal 0.671607 0.740908 -0
    outer loop
      vertex 24.1213 13.1213 0
      vertex 23.9032 13.319 4
      vertex 24.1213 13.1213 4
    endloop
  endfacet
  facet normal 0.671607 0.740908 0
    outer loop
      vertex 23.9032 13.319 4
      vertex 24.1213 13.1213 0
      vertex 23.9032 13.319 0
    endloop
  endfacet
  facet normal 0.595699 -0.803208 0
    outer loop
      vertex 23.6667 -13.4944 0
      vertex 23.9032 -13.319 4
      vertex 23.6667 -13.4944 4
    endloop
  endfacet
  facet normal 0.595699 -0.803208 0
    outer loop
      vertex 23.9032 -13.319 4
      vertex 23.6667 -13.4944 0
      vertex 23.9032 -13.319 0
    endloop
  endfacet
  facet normal 0.857643 -0.514246 0
    outer loop
      vertex 24.4944 -12.6667 4
      vertex 24.6458 -12.4142 0
      vertex 24.6458 -12.4142 4
    endloop
  endfacet
  facet normal 0.857643 -0.514246 0
    outer loop
      vertex 24.6458 -12.4142 0
      vertex 24.4944 -12.6667 4
      vertex 24.4944 -12.6667 0
    endloop
  endfacet
  facet normal 0.998787 -0.0492431 0
    outer loop
      vertex 24.9855 -11.2941 4
      vertex 25 -11 0
      vertex 25 -11 4
    endloop
  endfacet
  facet normal 0.998787 -0.0492431 0
    outer loop
      vertex 25 -11 0
      vertex 24.9855 -11.2941 4
      vertex 24.9855 -11.2941 0
    endloop
  endfacet
  facet normal -0.904063 -0.4274 0
    outer loop
      vertex -24.6458 -12.4142 0
      vertex -24.7716 -12.1481 4
      vertex -24.7716 -12.1481 0
    endloop
  endfacet
  facet normal -0.904063 -0.4274 0
    outer loop
      vertex -24.7716 -12.1481 4
      vertex -24.6458 -12.4142 0
      vertex -24.6458 -12.4142 4
    endloop
  endfacet
  facet normal 0 0 1
    outer loop
      vertex -3 14 4
      vertex -18.7 12.2 4
      vertex -3 12.2 4
    endloop
  endfacet
  facet normal -0 0 1
    outer loop
      vertex -22 14 4
      vertex -18.7 12.2 4
      vertex -3 14 4
    endloop
  endfacet
  facet normal 0 0 1
    outer loop
      vertex -20.2 10.7 4
      vertex -21.4 10.5 4
      vertex -20.2 -10.7 4
    endloop
  endfacet
  facet normal 0 0 1
    outer loop
      vertex -20.1928 10.847 4
      vertex -21.4 10.5 4
      vertex -20.2 10.7 4
    endloop
  endfacet
  facet normal 0 0 1
    outer loop
      vertex -20.1712 10.9926 4
      vertex -21.4 10.5 4
      vertex -20.1928 10.847 4
    endloop
  endfacet
  facet normal 0 0 1
    outer loop
      vertex -20.1354 11.1354 4
      vertex -21.4 10.5 4
      vertex -20.1712 10.9926 4
    endloop
  endfacet
  facet normal 0 0 1
    outer loop
      vertex -20.0858 11.274 4
      vertex -21.4 10.5 4
      vertex -20.1354 11.1354 4
    endloop
  endfacet
  facet normal 0 0 1
    outer loop
      vertex -20.0229 11.4071 4
      vertex -21.4 10.5 4
      vertex -20.0858 11.274 4
    endloop
  endfacet
  facet normal 0 0 1
    outer loop
      vertex -22 14 4
      vertex -20.0229 11.4071 4
      vertex -19.9472 11.5334 4
    endloop
  endfacet
  facet normal 0 0 1
    outer loop
      vertex -22 14 4
      vertex -19.9472 11.5334 4
      vertex -19.8595 11.6516 4
    endloop
  endfacet
  facet normal 0 0 1
    outer loop
      vertex -22 14 4
      vertex -19.8595 11.6516 4
      vertex -19.7607 11.7607 4
    endloop
  endfacet
  facet normal 0 0 1
    outer loop
      vertex -22 14 4
      vertex -19.7607 11.7607 4
      vertex -19.6516 11.8595 4
    endloop
  endfacet
  facet normal 0 0 1
    outer loop
      vertex -18.7 12.2 4
      vertex -22 14 4
      vertex -18.847 12.1928 4
    endloop
  endfacet
  facet normal 0 0 1
    outer loop
      vertex -22 14 4
      vertex -18.9926 12.1712 4
      vertex -18.847 12.1928 4
    endloop
  endfacet
  facet normal 0 0 1
    outer loop
      vertex -22 14 4
      vertex -19.1354 12.1354 4
      vertex -18.9926 12.1712 4
    endloop
  endfacet
  facet normal 0 0 1
    outer loop
      vertex -22 14 4
      vertex -19.274 12.0858 4
      vertex -19.1354 12.1354 4
    endloop
  endfacet
  facet normal 0 0 1
    outer loop
      vertex -22 14 4
      vertex -19.4071 12.0229 4
      vertex -19.274 12.0858 4
    endloop
  endfacet
  facet normal 0 0 1
    outer loop
      vertex -22 14 4
      vertex -19.5334 11.9472 4
      vertex -19.4071 12.0229 4
    endloop
  endfacet
  facet normal 0 0 1
    outer loop
      vertex -22 14 4
      vertex -19.6516 11.8595 4
      vertex -19.5334 11.9472 4
    endloop
  endfacet
  facet normal 0 0 1
    outer loop
      vertex -20.0229 11.4071 4
      vertex -22 14 4
      vertex -21.4 10.5 4
    endloop
  endfacet
  facet normal -0 0 1
    outer loop
      vertex -22.2941 13.9855 4
      vertex -21.4 10.5 4
      vertex -22 14 4
    endloop
  endfacet
  facet normal -0 0 1
    outer loop
      vertex -22.5853 13.9424 4
      vertex -21.4 10.5 4
      vertex -22.2941 13.9855 4
    endloop
  endfacet
  facet normal -0 0 1
    outer loop
      vertex -22.8708 13.8708 4
      vertex -21.4 10.5 4
      vertex -22.5853 13.9424 4
    endloop
  endfacet
  facet normal -0 0 1
    outer loop
      vertex -23.1481 13.7716 4
      vertex -21.4 10.5 4
      vertex -22.8708 13.8708 4
    endloop
  endfacet
  facet normal -0 0 1
    outer loop
      vertex -23.4142 13.6458 4
      vertex -21.4 10.5 4
      vertex -23.1481 13.7716 4
    endloop
  endfacet
  facet normal 0 0 1
    outer loop
      vertex -23.4142 13.6458 4
      vertex -23.6 10.5 4
      vertex -21.4 10.5 4
    endloop
  endfacet
  facet normal -0 0 1
    outer loop
      vertex -23.9032 13.319 4
      vertex -23.6 10.5 4
      vertex -23.6667 13.4944 4
    endloop
  endfacet
  facet normal -0 0 1
    outer loop
      vertex -23.6667 13.4944 4
      vertex -23.6 10.5 4
      vertex -23.4142 13.6458 4
    endloop
  endfacet
  facet normal 0 0 1
    outer loop
      vertex 23.6 10.5 4
      vertex 25 11 4
      vertex 24.9855 11.2941 4
    endloop
  endfacet
  facet normal 0 0 1
    outer loop
      vertex 25 11 4
      vertex 23.6 10.5 4
      vertex 25 -11 4
    endloop
  endfacet
  facet normal 0 0 1
    outer loop
      vertex 23.6 10.5 4
      vertex 24.9855 11.2941 4
      vertex 24.9424 11.5853 4
    endloop
  endfacet
  facet normal -0 0 1
    outer loop
      vertex 23.6 -10.5 4
      vertex 25 -11 4
      vertex 23.6 10.5 4
    endloop
  endfacet
  facet normal 0 0 1
    outer loop
      vertex 23.6 10.5 4
      vertex 24.9424 11.5853 4
      vertex 24.8708 11.8708 4
    endloop
  endfacet
  facet normal 0 0 1
    outer loop
      vertex 25 -11 4
      vertex 23.6 -10.5 4
      vertex 24.9855 -11.2941 4
    endloop
  endfacet
  facet normal 0 0 1
    outer loop
      vertex 23.6 10.5 4
      vertex 24.8708 11.8708 4
      vertex 24.7716 12.1481 4
    endloop
  endfacet
  facet normal 0 0 1
    outer loop
      vertex 24.9855 -11.2941 4
      vertex 23.6 -10.5 4
      vertex 24.9424 -11.5853 4
    endloop
  endfacet
  facet normal 0 0 1
    outer loop
      vertex 23.6 10.5 4
      vertex 24.7716 12.1481 4
      vertex 24.6458 12.4142 4
    endloop
  endfacet
  facet normal 0 0 1
    outer loop
      vertex 24.9424 -11.5853 4
      vertex 23.6 -10.5 4
      vertex 24.8708 -11.8708 4
    endloop
  endfacet
  facet normal 0 0 1
    outer loop
      vertex 23.6 10.5 4
      vertex 24.6458 12.4142 4
      vertex 24.4944 12.6667 4
    endloop
  endfacet
  facet normal 0 0 1
    outer loop
      vertex 24.8708 -11.8708 4
      vertex 23.6 -10.5 4
      vertex 24.7716 -12.1481 4
    endloop
  endfacet
  facet normal 0 0 1
    outer loop
      vertex 23.6 10.5 4
      vertex 24.4944 12.6667 4
      vertex 24.319 12.9032 4
    endloop
  endfacet
  facet normal 0 0 1
    outer loop
      vertex 24.7716 -12.1481 4
      vertex 23.6 -10.5 4
      vertex 24.6458 -12.4142 4
    endloop
  endfacet
  facet normal 0 0 1
    outer loop
      vertex 23.6 10.5 4
      vertex 24.319 12.9032 4
      vertex 24.1213 13.1213 4
    endloop
  endfacet
  facet normal 0 0 1
    outer loop
      vertex 24.6458 -12.4142 4
      vertex 23.6 -10.5 4
      vertex 24.4944 -12.6667 4
    endloop
  endfacet
  facet normal 0 0 1
    outer loop
      vertex 23.6 10.5 4
      vertex 24.1213 13.1213 4
      vertex 23.9032 13.319 4
    endloop
  endfacet
  facet normal 0 0 1
    outer loop
      vertex 24.4944 -12.6667 4
      vertex 23.6 -10.5 4
      vertex 24.319 -12.9032 4
    endloop
  endfacet
  facet normal 0 0 1
    outer loop
      vertex 23.6 10.5 4
      vertex 23.9032 13.319 4
      vertex 23.6667 13.4944 4
    endloop
  endfacet
  facet normal 0 0 1
    outer loop
      vertex 24.319 -12.9032 4
      vertex 23.6 -10.5 4
      vertex 24.1213 -13.1213 4
    endloop
  endfacet
  facet normal 0 0 1
    outer loop
      vertex 24.1213 -13.1213 4
      vertex 23.6 -10.5 4
      vertex 23.9032 -13.319 4
    endloop
  endfacet
  facet normal 0 0 1
    outer loop
      vertex 23.4142 13.6458 4
      vertex 23.6 10.5 4
      vertex 23.6667 13.4944 4
    endloop
  endfacet
  facet normal 0 0 1
    outer loop
      vertex 21.4 10.5 4
      vertex 23.4142 13.6458 4
      vertex 23.1481 13.7716 4
    endloop
  endfacet
  facet normal 0 0 1
    outer loop
      vertex 21.4 10.5 4
      vertex 23.1481 13.7716 4
      vertex 22.8708 13.8708 4
    endloop
  endfacet
  facet normal 0 0 1
    outer loop
      vertex 21.4 10.5 4
      vertex 22.8708 13.8708 4
      vertex 22.5853 13.9424 4
    endloop
  endfacet
  facet normal 0 0 1
    outer loop
      vertex 21.4 10.5 4
      vertex 22.5853 13.9424 4
      vertex 22.2941 13.9855 4
    endloop
  endfacet
  facet normal 0 0 1
    outer loop
      vertex 21.4 10.5 4
      vertex 22.2941 13.9855 4
      vertex 22 14 4
    endloop
  endfacet
  facet normal 0 0 1
    outer loop
      vertex 23.4142 13.6458 4
      vertex 21.4 10.5 4
      vertex 23.6 10.5 4
    endloop
  endfacet
  facet normal 0 0 1
    outer loop
      vertex 21.4 10.5 4
      vertex 20.2 10.7 4
      vertex 21.4 -10.5 4
    endloop
  endfacet
  facet normal -0 0 1
    outer loop
      vertex 20.0229 11.4071 4
      vertex 21.4 10.5 4
      vertex 22 14 4
    endloop
  endfacet
  facet normal 0 0 1
    outer loop
      vertex 21.4 10.5 4
      vertex 20.1928 10.847 4
      vertex 20.2 10.7 4
    endloop
  endfacet
  facet normal 0 0 1
    outer loop
      vertex 21.4 10.5 4
      vertex 20.1712 10.9926 4
      vertex 20.1928 10.847 4
    endloop
  endfacet
  facet normal 0 0 1
    outer loop
      vertex 21.4 10.5 4
      vertex 20.1354 11.1354 4
      vertex 20.1712 10.9926 4
    endloop
  endfacet
  facet normal 0 0 1
    outer loop
      vertex 21.4 10.5 4
      vertex 20.0858 11.274 4
      vertex 20.1354 11.1354 4
    endloop
  endfacet
  facet normal 0 0 1
    outer loop
      vertex 21.4 10.5 4
      vertex 20.0229 11.4071 4
      vertex 20.0858 11.274 4
    endloop
  endfacet
  facet normal 0 0 1
    outer loop
      vertex 22 14 4
      vertex 19.9472 11.5334 4
      vertex 20.0229 11.4071 4
    endloop
  endfacet
  facet normal 0 0 1
    outer loop
      vertex 22 14 4
      vertex 19.8595 11.6516 4
      vertex 19.9472 11.5334 4
    endloop
  endfacet
  facet normal 0 0 1
    outer loop
      vertex 22 14 4
      vertex 19.7607 11.7607 4
      vertex 19.8595 11.6516 4
    endloop
  endfacet
  facet normal 0 0 1
    outer loop
      vertex 22 14 4
      vertex 19.6516 11.8595 4
      vertex 19.7607 11.7607 4
    endloop
  endfacet
  facet normal 0 0 1
    outer loop
      vertex 22 14 4
      vertex 19.5334 11.9472 4
      vertex 19.6516 11.8595 4
    endloop
  endfacet
  facet normal 0 0 1
    outer loop
      vertex 22 14 4
      vertex 19.4071 12.0229 4
      vertex 19.5334 11.9472 4
    endloop
  endfacet
  facet normal 0 0 1
    outer loop
      vertex 22 14 4
      vertex 19.274 12.0858 4
      vertex 19.4071 12.0229 4
    endloop
  endfacet
  facet normal 0 0 1
    outer loop
      vertex 22 14 4
      vertex 19.1354 12.1354 4
      vertex 19.274 12.0858 4
    endloop
  endfacet
  facet normal 0 0 1
    outer loop
      vertex 22 14 4
      vertex 18.9926 12.1712 4
      vertex 19.1354 12.1354 4
    endloop
  endfacet
  facet normal 0 0 1
    outer loop
      vertex 22 14 4
      vertex 18.847 12.1928 4
      vertex 18.9926 12.1712 4
    endloop
  endfacet
  facet normal 0 0 1
    outer loop
      vertex 22 14 4
      vertex 18.7 12.2 4
      vertex 18.847 12.1928 4
    endloop
  endfacet
  facet normal -0 0 1
    outer loop
      vertex 3 14 4
      vertex 18.7 12.2 4
      vertex 22 14 4
    endloop
  endfacet
  facet normal 0 0 1
    outer loop
      vertex 18.7 12.2 4
      vertex 3 14 4
      vertex 3 12.2 4
    endloop
  endfacet
  facet normal 0 0 1
    outer loop
      vertex 23.9032 -13.319 4
      vertex 23.6 -10.5 4
      vertex 23.6667 -13.4944 4
    endloop
  endfacet
  facet normal 0 0 1
    outer loop
      vertex 23.6 -10.5 4
      vertex 23.4142 -13.6458 4
      vertex 23.6667 -13.4944 4
    endloop
  endfacet
  facet normal -0 0 1
    outer loop
      vertex 21.4 -10.5 4
      vertex 23.4142 -13.6458 4
      vertex 23.6 -10.5 4
    endloop
  endfacet
  facet normal 0 0 1
    outer loop
      vertex 23.4142 -13.6458 4
      vertex 21.4 -10.5 4
      vertex 23.1481 -13.7716 4
    endloop
  endfacet
  facet normal 0 0 1
    outer loop
      vertex 23.1481 -13.7716 4
      vertex 21.4 -10.5 4
      vertex 22.8708 -13.8708 4
    endloop
  endfacet
  facet normal 0 0 1
    outer loop
      vertex 22.8708 -13.8708 4
      vertex 21.4 -10.5 4
      vertex 22.5853 -13.9424 4
    endloop
  endfacet
  facet normal 0 0 1
    outer loop
      vertex 22.5853 -13.9424 4
      vertex 21.4 -10.5 4
      vertex 22.2941 -13.9855 4
    endloop
  endfacet
  facet normal 0 0 1
    outer loop
      vertex 22.2941 -13.9855 4
      vertex 21.4 -10.5 4
      vertex 22 -14 4
    endloop
  endfacet
  facet normal 0 0 1
    outer loop
      vertex 20.2 -10.7 4
      vertex 21.4 -10.5 4
      vertex 20.2 10.7 4
    endloop
  endfacet
  facet normal 0 0 1
    outer loop
      vertex 20.1928 -10.847 4
      vertex 21.4 -10.5 4
      vertex 20.2 -10.7 4
    endloop
  endfacet
  facet normal 0 0 1
    outer loop
      vertex 20.1712 -10.9926 4
      vertex 21.4 -10.5 4
      vertex 20.1928 -10.847 4
    endloop
  endfacet
  facet normal 0 0 1
    outer loop
      vertex 20.1354 -11.1354 4
      vertex 21.4 -10.5 4
      vertex 20.1712 -10.9926 4
    endloop
  endfacet
  facet normal 0 0 1
    outer loop
      vertex 20.0858 -11.274 4
      vertex 21.4 -10.5 4
      vertex 20.1354 -11.1354 4
    endloop
  endfacet
  facet normal 0 0 1
    outer loop
      vertex 20.0229 -11.4071 4
      vertex 21.4 -10.5 4
      vertex 20.0858 -11.274 4
    endloop
  endfacet
  facet normal 0 0 1
    outer loop
      vertex 21.4 -10.5 4
      vertex 20.0229 -11.4071 4
      vertex 22 -14 4
    endloop
  endfacet
  facet normal -0 0 1
    outer loop
      vertex 19.9472 -11.5334 4
      vertex 22 -14 4
      vertex 20.0229 -11.4071 4
    endloop
  endfacet
  facet normal -0 0 1
    outer loop
      vertex 19.8595 -11.6516 4
      vertex 22 -14 4
      vertex 19.9472 -11.5334 4
    endloop
  endfacet
  facet normal -0 0 1
    outer loop
      vertex 19.7607 -11.7607 4
      vertex 22 -14 4
      vertex 19.8595 -11.6516 4
    endloop
  endfacet
  facet normal -0 0 1
    outer loop
      vertex 19.6516 -11.8595 4
      vertex 22 -14 4
      vertex 19.7607 -11.7607 4
    endloop
  endfacet
  facet normal -0 0 1
    outer loop
      vertex 19.5334 -11.9472 4
      vertex 22 -14 4
      vertex 19.6516 -11.8595 4
    endloop
  endfacet
  facet normal -0 0 1
    outer loop
      vertex 19.4071 -12.0229 4
      vertex 22 -14 4
      vertex 19.5334 -11.9472 4
    endloop
  endfacet
  facet normal -0 0 1
    outer loop
      vertex 19.274 -12.0858 4
      vertex 22 -14 4
      vertex 19.4071 -12.0229 4
    endloop
  endfacet
  facet normal -0 0 1
    outer loop
      vertex 19.1354 -12.1354 4
      vertex 22 -14 4
      vertex 19.274 -12.0858 4
    endloop
  endfacet
  facet normal -0 0 1
    outer loop
      vertex 18.9926 -12.1712 4
      vertex 22 -14 4
      vertex 19.1354 -12.1354 4
    endloop
  endfacet
  facet normal -0 0 1
    outer loop
      vertex 18.847 -12.1928 4
      vertex 22 -14 4
      vertex 18.9926 -12.1712 4
    endloop
  endfacet
  facet normal -0 0 1
    outer loop
      vertex 18.7 -12.2 4
      vertex 22 -14 4
      vertex 18.847 -12.1928 4
    endloop
  endfacet
  facet normal -0 0 1
    outer loop
      vertex -18.7 -12.2 4
      vertex 22 -14 4
      vertex 18.7 -12.2 4
    endloop
  endfacet
  facet normal -0 0 1
    outer loop
      vertex -21.4 -10.5 4
      vertex -20.2 -10.7 4
      vertex -21.4 10.5 4
    endloop
  endfacet
  facet normal 0 0 1
    outer loop
      vertex -20.2 -10.7 4
      vertex -21.4 -10.5 4
      vertex -20.1928 -10.847 4
    endloop
  endfacet
  facet normal 0 0 1
    outer loop
      vertex -21.4 -10.5 4
      vertex -20.1712 -10.9926 4
      vertex -20.1928 -10.847 4
    endloop
  endfacet
  facet normal 0 0 1
    outer loop
      vertex -21.4 -10.5 4
      vertex -20.1354 -11.1354 4
      vertex -20.1712 -10.9926 4
    endloop
  endfacet
  facet normal 0 0 1
    outer loop
      vertex -21.4 -10.5 4
      vertex -20.0858 -11.274 4
      vertex -20.1354 -11.1354 4
    endloop
  endfacet
  facet normal 0 0 1
    outer loop
      vertex -21.4 -10.5 4
      vertex -20.0229 -11.4071 4
      vertex -20.0858 -11.274 4
    endloop
  endfacet
  facet normal 0 0 1
    outer loop
      vertex -22 -14 4
      vertex -20.0229 -11.4071 4
      vertex -21.4 -10.5 4
    endloop
  endfacet
  facet normal 0 0 1
    outer loop
      vertex -20.0229 -11.4071 4
      vertex -22 -14 4
      vertex -19.9472 -11.5334 4
    endloop
  endfacet
  facet normal 0 0 1
    outer loop
      vertex -19.9472 -11.5334 4
      vertex -22 -14 4
      vertex -19.8595 -11.6516 4
    endloop
  endfacet
  facet normal 0 0 1
    outer loop
      vertex -19.8595 -11.6516 4
      vertex -22 -14 4
      vertex -19.7607 -11.7607 4
    endloop
  endfacet
  facet normal 0 0 1
    outer loop
      vertex -18.7 -12.2 4
      vertex -22 -14 4
      vertex 22 -14 4
    endloop
  endfacet
  facet normal 0 0 1
    outer loop
      vertex -18.847 -12.1928 4
      vertex -22 -14 4
      vertex -18.7 -12.2 4
    endloop
  endfacet
  facet normal 0 0 1
    outer loop
      vertex -18.9926 -12.1712 4
      vertex -22 -14 4
      vertex -18.847 -12.1928 4
    endloop
  endfacet
  facet normal 0 0 1
    outer loop
      vertex -19.1354 -12.1354 4
      vertex -22 -14 4
      vertex -18.9926 -12.1712 4
    endloop
  endfacet
  facet normal 0 0 1
    outer loop
      vertex -19.274 -12.0858 4
      vertex -22 -14 4
      vertex -19.1354 -12.1354 4
    endloop
  endfacet
  facet normal 0 0 1
    outer loop
      vertex -19.4071 -12.0229 4
      vertex -22 -14 4
      vertex -19.274 -12.0858 4
    endloop
  endfacet
  facet normal 0 0 1
    outer loop
      vertex -19.5334 -11.9472 4
      vertex -22 -14 4
      vertex -19.4071 -12.0229 4
    endloop
  endfacet
  facet normal 0 0 1
    outer loop
      vertex -19.6516 -11.8595 4
      vertex -22 -14 4
      vertex -19.5334 -11.9472 4
    endloop
  endfacet
  facet normal 0 0 1
    outer loop
      vertex -19.7607 -11.7607 4
      vertex -22 -14 4
      vertex -19.6516 -11.8595 4
    endloop
  endfacet
  facet normal 0 0 1
    outer loop
      vertex -21.4 -10.5 4
      vertex -22.2941 -13.9855 4
      vertex -22 -14 4
    endloop
  endfacet
  facet normal 0 0 1
    outer loop
      vertex -21.4 -10.5 4
      vertex -22.5853 -13.9424 4
      vertex -22.2941 -13.9855 4
    endloop
  endfacet
  facet normal 0 0 1
    outer loop
      vertex -21.4 -10.5 4
      vertex -22.8708 -13.8708 4
      vertex -22.5853 -13.9424 4
    endloop
  endfacet
  facet normal 0 0 1
    outer loop
      vertex -21.4 -10.5 4
      vertex -23.1481 -13.7716 4
      vertex -22.8708 -13.8708 4
    endloop
  endfacet
  facet normal 0 0 1
    outer loop
      vertex -21.4 -10.5 4
      vertex -23.4142 -13.6458 4
      vertex -23.1481 -13.7716 4
    endloop
  endfacet
  facet normal -0 0 1
    outer loop
      vertex -23.6 -10.5 4
      vertex -23.4142 -13.6458 4
      vertex -21.4 -10.5 4
    endloop
  endfacet
  facet normal 0 0 1
    outer loop
      vertex -23.6 -10.5 4
      vertex -23.6667 -13.4944 4
      vertex -23.4142 -13.6458 4
    endloop
  endfacet
  facet normal 0 0 1
    outer loop
      vertex -23.6 10.5 4
      vertex -25 11 4
      vertex -23.6 -10.5 4
    endloop
  endfacet
  facet normal -0 0 1
    outer loop
      vertex -24.1213 13.1213 4
      vertex -23.6 10.5 4
      vertex -23.9032 13.319 4
    endloop
  endfacet
  facet normal 0 0 1
    outer loop
      vertex -25 -11 4
      vertex -23.6 -10.5 4
      vertex -25 11 4
    endloop
  endfacet
  facet normal -0 0 1
    outer loop
      vertex -24.319 12.9032 4
      vertex -23.6 10.5 4
      vertex -24.1213 13.1213 4
    endloop
  endfacet
  facet normal 0 -0 1
    outer loop
      vertex -24.9855 -11.2941 4
      vertex -23.6 -10.5 4
      vertex -25 -11 4
    endloop
  endfacet
  facet normal -0 0 1
    outer loop
      vertex -24.4944 12.6667 4
      vertex -23.6 10.5 4
      vertex -24.319 12.9032 4
    endloop
  endfacet
  facet normal 0 0 1
    outer loop
      vertex -23.6 -10.5 4
      vertex -23.9032 -13.319 4
      vertex -23.6667 -13.4944 4
    endloop
  endfacet
  facet normal -0 0 1
    outer loop
      vertex -24.6458 12.4142 4
      vertex -23.6 10.5 4
      vertex -24.4944 12.6667 4
    endloop
  endfacet
  facet normal 0 0 1
    outer loop
      vertex -23.6 -10.5 4
      vertex -24.1213 -13.1213 4
      vertex -23.9032 -13.319 4
    endloop
  endfacet
  facet normal -0 0 1
    outer loop
      vertex -24.7716 12.1481 4
      vertex -23.6 10.5 4
      vertex -24.6458 12.4142 4
    endloop
  endfacet
  facet normal 0 0 1
    outer loop
      vertex -23.6 -10.5 4
      vertex -24.319 -12.9032 4
      vertex -24.1213 -13.1213 4
    endloop
  endfacet
  facet normal -0 0 1
    outer loop
      vertex -24.8708 11.8708 4
      vertex -23.6 10.5 4
      vertex -24.7716 12.1481 4
    endloop
  endfacet
  facet normal 0 0 1
    outer loop
      vertex -23.6 -10.5 4
      vertex -24.4944 -12.6667 4
      vertex -24.319 -12.9032 4
    endloop
  endfacet
  facet normal -0 0 1
    outer loop
      vertex -24.9424 11.5853 4
      vertex -23.6 10.5 4
      vertex -24.8708 11.8708 4
    endloop
  endfacet
  facet normal 0 0 1
    outer loop
      vertex -23.6 -10.5 4
      vertex -24.6458 -12.4142 4
      vertex -24.4944 -12.6667 4
    endloop
  endfacet
  facet normal -0 0 1
    outer loop
      vertex -24.9855 11.2941 4
      vertex -23.6 10.5 4
      vertex -24.9424 11.5853 4
    endloop
  endfacet
  facet normal 0 0 1
    outer loop
      vertex -23.6 -10.5 4
      vertex -24.7716 -12.1481 4
      vertex -24.6458 -12.4142 4
    endloop
  endfacet
  facet normal 0 0 1
    outer loop
      vertex -23.6 10.5 4
      vertex -24.9855 11.2941 4
      vertex -25 11 4
    endloop
  endfacet
  facet normal 0 0 1
    outer loop
      vertex -23.6 -10.5 4
      vertex -24.8708 -11.8708 4
      vertex -24.7716 -12.1481 4
    endloop
  endfacet
  facet normal 0 0 1
    outer loop
      vertex -23.6 -10.5 4
      vertex -24.9424 -11.5853 4
      vertex -24.8708 -11.8708 4
    endloop
  endfacet
  facet normal 0 0 1
    outer loop
      vertex -23.6 -10.5 4
      vertex -24.9855 -11.2941 4
      vertex -24.9424 -11.5853 4
    endloop
  endfacet
  facet normal 0.998787 0.0492431 0
    outer loop
      vertex 25 11 4
      vertex 24.9855 11.2941 0
      vertex 24.9855 11.2941 4
    endloop
  endfacet
  facet normal 0.998787 0.0492431 0
    outer loop
      vertex 24.9855 11.2941 0
      vertex 25 11 4
      vertex 25 11 0
    endloop
  endfacet
  facet normal 0.803208 -0.595699 0
    outer loop
      vertex 24.319 -12.9032 4
      vertex 24.4944 -12.6667 0
      vertex 24.4944 -12.6667 4
    endloop
  endfacet
  facet normal 0.803208 -0.595699 0
    outer loop
      vertex 24.4944 -12.6667 0
      vertex 24.319 -12.9032 4
      vertex 24.319 -12.9032 0
    endloop
  endfacet
  facet normal 0.740908 0.671607 0
    outer loop
      vertex 24.319 12.9032 4
      vertex 24.1213 13.1213 0
      vertex 24.1213 13.1213 4
    endloop
  endfacet
  facet normal 0.740908 0.671607 0
    outer loop
      vertex 24.1213 13.1213 0
      vertex 24.319 12.9032 4
      vertex 24.319 12.9032 0
    endloop
  endfacet
  facet normal 0 0 -1
    outer loop
      vertex 23.6 -10.5 0
      vertex 25 -11 0
      vertex 24.9855 -11.2941 0
    endloop
  endfacet
  facet normal 0 0 -1
    outer loop
      vertex 25 -11 0
      vertex 23.6 -10.5 0
      vertex 25 11 0
    endloop
  endfacet
  facet normal 0 0 -1
    outer loop
      vertex 23.6 -10.5 0
      vertex 24.9855 -11.2941 0
      vertex 24.9424 -11.5853 0
    endloop
  endfacet
  facet normal 0 0 -1
    outer loop
      vertex 23.6 10.5 0
      vertex 25 11 0
      vertex 23.6 -10.5 0
    endloop
  endfacet
  facet normal 0 0 -1
    outer loop
      vertex 23.6 -10.5 0
      vertex 24.9424 -11.5853 0
      vertex 24.8708 -11.8708 0
    endloop
  endfacet
  facet normal -0 0 -1
    outer loop
      vertex 25 11 0
      vertex 23.6 10.5 0
      vertex 24.9855 11.2941 0
    endloop
  endfacet
  facet normal 0 0 -1
    outer loop
      vertex 23.6 -10.5 0
      vertex 24.8708 -11.8708 0
      vertex 24.7716 -12.1481 0
    endloop
  endfacet
  facet normal -0 0 -1
    outer loop
      vertex 24.9855 11.2941 0
      vertex 23.6 10.5 0
      vertex 24.9424 11.5853 0
    endloop
  endfacet
  facet normal 0 0 -1
    outer loop
      vertex 23.6 -10.5 0
      vertex 24.7716 -12.1481 0
      vertex 24.6458 -12.4142 0
    endloop
  endfacet
  facet normal -0 0 -1
    outer loop
      vertex 24.9424 11.5853 0
      vertex 23.6 10.5 0
      vertex 24.8708 11.8708 0
    endloop
  endfacet
  facet normal 0 0 -1
    outer loop
      vertex 23.6 -10.5 0
      vertex 24.6458 -12.4142 0
      vertex 24.4944 -12.6667 0
    endloop
  endfacet
  facet normal -0 0 -1
    outer loop
      vertex 24.8708 11.8708 0
      vertex 23.6 10.5 0
      vertex 24.7716 12.1481 0
    endloop
  endfacet
  facet normal 0 0 -1
    outer loop
      vertex 23.6 -10.5 0
      vertex 24.4944 -12.6667 0
      vertex 24.319 -12.9032 0
    endloop
  endfacet
  facet normal -0 0 -1
    outer loop
      vertex 24.7716 12.1481 0
      vertex 23.6 10.5 0
      vertex 24.6458 12.4142 0
    endloop
  endfacet
  facet normal 0 0 -1
    outer loop
      vertex 23.6 -10.5 0
      vertex 24.319 -12.9032 0
      vertex 24.1213 -13.1213 0
    endloop
  endfacet
  facet normal -0 0 -1
    outer loop
      vertex 24.6458 12.4142 0
      vertex 23.6 10.5 0
      vertex 24.4944 12.6667 0
    endloop
  endfacet
  facet normal 0 0 -1
    outer loop
      vertex 23.6 -10.5 0
      vertex 24.1213 -13.1213 0
      vertex 23.9032 -13.319 0
    endloop
  endfacet
  facet normal -0 0 -1
    outer loop
      vertex 24.4944 12.6667 0
      vertex 23.6 10.5 0
      vertex 24.319 12.9032 0
    endloop
  endfacet
  facet normal 0 0 -1
    outer loop
      vertex 23.6 -10.5 0
      vertex 23.9032 -13.319 0
      vertex 23.6667 -13.4944 0
    endloop
  endfacet
  facet normal -0 0 -1
    outer loop
      vertex 24.319 12.9032 0
      vertex 23.6 10.5 0
      vertex 24.1213 13.1213 0
    endloop
  endfacet
  facet normal -0 0 -1
    outer loop
      vertex 24.1213 13.1213 0
      vertex 23.6 10.5 0
      vertex 23.9032 13.319 0
    endloop
  endfacet
  facet normal 0 0 -1
    outer loop
      vertex 23.4142 -13.6458 0
      vertex 23.6 -10.5 0
      vertex 23.6667 -13.4944 0
    endloop
  endfacet
  facet normal 0 0 -1
    outer loop
      vertex 21.4 -10.5 0
      vertex 23.4142 -13.6458 0
      vertex 23.1481 -13.7716 0
    endloop
  endfacet
  facet normal 0 0 -1
    outer loop
      vertex 21.4 -10.5 0
      vertex 23.1481 -13.7716 0
      vertex 22.8708 -13.8708 0
    endloop
  endfacet
  facet normal 0 0 -1
    outer loop
      vertex 21.4 -10.5 0
      vertex 22.8708 -13.8708 0
      vertex 22.5853 -13.9424 0
    endloop
  endfacet
  facet normal 0 0 -1
    outer loop
      vertex 21.4 -10.5 0
      vertex 22.5853 -13.9424 0
      vertex 22.2941 -13.9855 0
    endloop
  endfacet
  facet normal 0 0 -1
    outer loop
      vertex 21.4 -10.5 0
      vertex 22.2941 -13.9855 0
      vertex 22 -14 0
    endloop
  endfacet
  facet normal 0 0 -1
    outer loop
      vertex 23.4142 -13.6458 0
      vertex 21.4 -10.5 0
      vertex 23.6 -10.5 0
    endloop
  endfacet
  facet normal -0 0 -1
    outer loop
      vertex 21.4 -10.5 0
      vertex 20.2 -10.7 0
      vertex 21.4 10.5 0
    endloop
  endfacet
  facet normal 0 0 -1
    outer loop
      vertex 20.0229 -11.4071 0
      vertex 21.4 -10.5 0
      vertex 22 -14 0
    endloop
  endfacet
  facet normal 0 0 -1
    outer loop
      vertex 21.4 -10.5 0
      vertex 20.1928 -10.847 0
      vertex 20.2 -10.7 0
    endloop
  endfacet
  facet normal 0 0 -1
    outer loop
      vertex 21.4 -10.5 0
      vertex 20.1712 -10.9926 0
      vertex 20.1928 -10.847 0
    endloop
  endfacet
  facet normal 0 0 -1
    outer loop
      vertex 21.4 -10.5 0
      vertex 20.1354 -11.1354 0
      vertex 20.1712 -10.9926 0
    endloop
  endfacet
  facet normal 0 0 -1
    outer loop
      vertex 21.4 -10.5 0
      vertex 20.0858 -11.274 0
      vertex 20.1354 -11.1354 0
    endloop
  endfacet
  facet normal 0 0 -1
    outer loop
      vertex 21.4 -10.5 0
      vertex 20.0229 -11.4071 0
      vertex 20.0858 -11.274 0
    endloop
  endfacet
  facet normal 0 0 -1
    outer loop
      vertex 22 -14 0
      vertex 19.9472 -11.5334 0
      vertex 20.0229 -11.4071 0
    endloop
  endfacet
  facet normal 0 0 -1
    outer loop
      vertex 22 -14 0
      vertex 19.8595 -11.6516 0
      vertex 19.9472 -11.5334 0
    endloop
  endfacet
  facet normal 0 0 -1
    outer loop
      vertex 22 -14 0
      vertex 19.7607 -11.7607 0
      vertex 19.8595 -11.6516 0
    endloop
  endfacet
  facet normal 0 0 -1
    outer loop
      vertex 22 -14 0
      vertex 19.6516 -11.8595 0
      vertex 19.7607 -11.7607 0
    endloop
  endfacet
  facet normal 0 0 -1
    outer loop
      vertex 22 -14 0
      vertex 19.5334 -11.9472 0
      vertex 19.6516 -11.8595 0
    endloop
  endfacet
  facet normal 0 0 -1
    outer loop
      vertex 22 -14 0
      vertex 19.4071 -12.0229 0
      vertex 19.5334 -11.9472 0
    endloop
  endfacet
  facet normal 0 0 -1
    outer loop
      vertex 22 -14 0
      vertex 19.274 -12.0858 0
      vertex 19.4071 -12.0229 0
    endloop
  endfacet
  facet normal 0 0 -1
    outer loop
      vertex 22 -14 0
      vertex 19.1354 -12.1354 0
      vertex 19.274 -12.0858 0
    endloop
  endfacet
  facet normal 0 0 -1
    outer loop
      vertex 22 -14 0
      vertex 18.9926 -12.1712 0
      vertex 19.1354 -12.1354 0
    endloop
  endfacet
  facet normal 0 0 -1
    outer loop
      vertex 22 -14 0
      vertex 18.847 -12.1928 0
      vertex 18.9926 -12.1712 0
    endloop
  endfacet
  facet normal 0 0 -1
    outer loop
      vertex 22 -14 0
      vertex 18.7 -12.2 0
      vertex 18.847 -12.1928 0
    endloop
  endfacet
  facet normal 0 0 -1
    outer loop
      vertex 22 -14 0
      vertex -18.7 -12.2 0
      vertex 18.7 -12.2 0
    endloop
  endfacet
  facet normal 0 0 -1
    outer loop
      vertex -20.2 -10.7 0
      vertex -21.4 -10.5 0
      vertex -20.2 10.7 0
    endloop
  endfacet
  facet normal 0 0 -1
    outer loop
      vertex -20.1928 -10.847 0
      vertex -21.4 -10.5 0
      vertex -20.2 -10.7 0
    endloop
  endfacet
  facet normal 0 0 -1
    outer loop
      vertex -20.1712 -10.9926 0
      vertex -21.4 -10.5 0
      vertex -20.1928 -10.847 0
    endloop
  endfacet
  facet normal 0 0 -1
    outer loop
      vertex -20.1354 -11.1354 0
      vertex -21.4 -10.5 0
      vertex -20.1712 -10.9926 0
    endloop
  endfacet
  facet normal 0 0 -1
    outer loop
      vertex -20.0858 -11.274 0
      vertex -21.4 -10.5 0
      vertex -20.1354 -11.1354 0
    endloop
  endfacet
  facet normal 0 0 -1
    outer loop
      vertex -20.0229 -11.4071 0
      vertex -21.4 -10.5 0
      vertex -20.0858 -11.274 0
    endloop
  endfacet
  facet normal 0 0 -1
    outer loop
      vertex -22 -14 0
      vertex -20.0229 -11.4071 0
      vertex -19.9472 -11.5334 0
    endloop
  endfacet
  facet normal 0 0 -1
    outer loop
      vertex -22 -14 0
      vertex -19.9472 -11.5334 0
      vertex -19.8595 -11.6516 0
    endloop
  endfacet
  facet normal 0 0 -1
    outer loop
      vertex -22 -14 0
      vertex -19.8595 -11.6516 0
      vertex -19.7607 -11.7607 0
    endloop
  endfacet
  facet normal 0 0 -1
    outer loop
      vertex -22 -14 0
      vertex -19.7607 -11.7607 0
      vertex -19.6516 -11.8595 0
    endloop
  endfacet
  facet normal 0 0 -1
    outer loop
      vertex -22 -14 0
      vertex -18.7 -12.2 0
      vertex 22 -14 0
    endloop
  endfacet
  facet normal 0 0 -1
    outer loop
      vertex -22 -14 0
      vertex -18.847 -12.1928 0
      vertex -18.7 -12.2 0
    endloop
  endfacet
  facet normal 0 0 -1
    outer loop
      vertex -22 -14 0
      vertex -18.9926 -12.1712 0
      vertex -18.847 -12.1928 0
    endloop
  endfacet
  facet normal 0 0 -1
    outer loop
      vertex -22 -14 0
      vertex -19.1354 -12.1354 0
      vertex -18.9926 -12.1712 0
    endloop
  endfacet
  facet normal 0 0 -1
    outer loop
      vertex -22 -14 0
      vertex -19.274 -12.0858 0
      vertex -19.1354 -12.1354 0
    endloop
  endfacet
  facet normal 0 0 -1
    outer loop
      vertex -22 -14 0
      vertex -19.4071 -12.0229 0
      vertex -19.274 -12.0858 0
    endloop
  endfacet
  facet normal 0 0 -1
    outer loop
      vertex -22 -14 0
      vertex -19.5334 -11.9472 0
      vertex -19.4071 -12.0229 0
    endloop
  endfacet
  facet normal 0 0 -1
    outer loop
      vertex -22 -14 0
      vertex -19.6516 -11.8595 0
      vertex -19.5334 -11.9472 0
    endloop
  endfacet
  facet normal -0 0 -1
    outer loop
      vertex -20.0229 -11.4071 0
      vertex -22 -14 0
      vertex -21.4 -10.5 0
    endloop
  endfacet
  facet normal 0 0 -1
    outer loop
      vertex -22.2941 -13.9855 0
      vertex -21.4 -10.5 0
      vertex -22 -14 0
    endloop
  endfacet
  facet normal 0 0 -1
    outer loop
      vertex -22.5853 -13.9424 0
      vertex -21.4 -10.5 0
      vertex -22.2941 -13.9855 0
    endloop
  endfacet
  facet normal 0 0 -1
    outer loop
      vertex -22.8708 -13.8708 0
      vertex -21.4 -10.5 0
      vertex -22.5853 -13.9424 0
    endloop
  endfacet
  facet normal 0 0 -1
    outer loop
      vertex -23.1481 -13.7716 0
      vertex -21.4 -10.5 0
      vertex -22.8708 -13.8708 0
    endloop
  endfacet
  facet normal 0 0 -1
    outer loop
      vertex -23.4142 -13.6458 0
      vertex -21.4 -10.5 0
      vertex -23.1481 -13.7716 0
    endloop
  endfacet
  facet normal 0 0 -1
    outer loop
      vertex -23.4142 -13.6458 0
      vertex -23.6 -10.5 0
      vertex -21.4 -10.5 0
    endloop
  endfacet
  facet normal 0 0 -1
    outer loop
      vertex -23.9032 -13.319 0
      vertex -23.6 -10.5 0
      vertex -23.6667 -13.4944 0
    endloop
  endfacet
  facet normal 0 0 -1
    outer loop
      vertex -23.6667 -13.4944 0
      vertex -23.6 -10.5 0
      vertex -23.4142 -13.6458 0
    endloop
  endfacet
  facet normal -0 0 -1
    outer loop
      vertex 23.9032 13.319 0
      vertex 23.6 10.5 0
      vertex 23.6667 13.4944 0
    endloop
  endfacet
  facet normal 0 0 -1
    outer loop
      vertex 23.6 10.5 0
      vertex 23.4142 13.6458 0
      vertex 23.6667 13.4944 0
    endloop
  endfacet
  facet normal 0 0 -1
    outer loop
      vertex 21.4 10.5 0
      vertex 23.4142 13.6458 0
      vertex 23.6 10.5 0
    endloop
  endfacet
  facet normal -0 0 -1
    outer loop
      vertex 23.4142 13.6458 0
      vertex 21.4 10.5 0
      vertex 23.1481 13.7716 0
    endloop
  endfacet
  facet normal -0 0 -1
    outer loop
      vertex 23.1481 13.7716 0
      vertex 21.4 10.5 0
      vertex 22.8708 13.8708 0
    endloop
  endfacet
  facet normal -0 0 -1
    outer loop
      vertex 22.8708 13.8708 0
      vertex 21.4 10.5 0
      vertex 22.5853 13.9424 0
    endloop
  endfacet
  facet normal -0 0 -1
    outer loop
      vertex 22.5853 13.9424 0
      vertex 21.4 10.5 0
      vertex 22.2941 13.9855 0
    endloop
  endfacet
  facet normal -0 0 -1
    outer loop
      vertex 22.2941 13.9855 0
      vertex 21.4 10.5 0
      vertex 22 14 0
    endloop
  endfacet
  facet normal 0 0 -1
    outer loop
      vertex 20.2 10.7 0
      vertex 21.4 10.5 0
      vertex 20.2 -10.7 0
    endloop
  endfacet
  facet normal 0 0 -1
    outer loop
      vertex 20.1928 10.847 0
      vertex 21.4 10.5 0
      vertex 20.2 10.7 0
    endloop
  endfacet
  facet normal 0 0 -1
    outer loop
      vertex 20.1712 10.9926 0
      vertex 21.4 10.5 0
      vertex 20.1928 10.847 0
    endloop
  endfacet
  facet normal 0 0 -1
    outer loop
      vertex 20.1354 11.1354 0
      vertex 21.4 10.5 0
      vertex 20.1712 10.9926 0
    endloop
  endfacet
  facet normal 0 0 -1
    outer loop
      vertex 20.0858 11.274 0
      vertex 21.4 10.5 0
      vertex 20.1354 11.1354 0
    endloop
  endfacet
  facet normal 0 0 -1
    outer loop
      vertex 20.0229 11.4071 0
      vertex 21.4 10.5 0
      vertex 20.0858 11.274 0
    endloop
  endfacet
  facet normal 0 0 -1
    outer loop
      vertex 21.4 10.5 0
      vertex 20.0229 11.4071 0
      vertex 22 14 0
    endloop
  endfacet
  facet normal 0 0 -1
    outer loop
      vertex 19.9472 11.5334 0
      vertex 22 14 0
      vertex 20.0229 11.4071 0
    endloop
  endfacet
  facet normal 0 0 -1
    outer loop
      vertex 19.8595 11.6516 0
      vertex 22 14 0
      vertex 19.9472 11.5334 0
    endloop
  endfacet
  facet normal 0 0 -1
    outer loop
      vertex 19.7607 11.7607 0
      vertex 22 14 0
      vertex 19.8595 11.6516 0
    endloop
  endfacet
  facet normal 0 0 -1
    outer loop
      vertex 19.6516 11.8595 0
      vertex 22 14 0
      vertex 19.7607 11.7607 0
    endloop
  endfacet
  facet normal 0 0 -1
    outer loop
      vertex 19.5334 11.9472 0
      vertex 22 14 0
      vertex 19.6516 11.8595 0
    endloop
  endfacet
  facet normal 0 0 -1
    outer loop
      vertex 19.4071 12.0229 0
      vertex 22 14 0
      vertex 19.5334 11.9472 0
    endloop
  endfacet
  facet normal 0 0 -1
    outer loop
      vertex 19.274 12.0858 0
      vertex 22 14 0
      vertex 19.4071 12.0229 0
    endloop
  endfacet
  facet normal 0 0 -1
    outer loop
      vertex 19.1354 12.1354 0
      vertex 22 14 0
      vertex 19.274 12.0858 0
    endloop
  endfacet
  facet normal 0 0 -1
    outer loop
      vertex 18.9926 12.1712 0
      vertex 22 14 0
      vertex 19.1354 12.1354 0
    endloop
  endfacet
  facet normal 0 0 -1
    outer loop
      vertex 18.847 12.1928 0
      vertex 22 14 0
      vertex 18.9926 12.1712 0
    endloop
  endfacet
  facet normal 0 0 -1
    outer loop
      vertex 18.7 12.2 0
      vertex 22 14 0
      vertex 18.847 12.1928 0
    endloop
  endfacet
  facet normal 0 0 -1
    outer loop
      vertex 3 14 0
      vertex 18.7 12.2 0
      vertex 3 12.2 0
    endloop
  endfacet
  facet normal 0 0 -1
    outer loop
      vertex 18.7 12.2 0
      vertex 3 14 0
      vertex 22 14 0
    endloop
  endfacet
  facet normal 0 0 -1
    outer loop
      vertex -18.7 12.2 0
      vertex -3 14 0
      vertex -3 12.2 0
    endloop
  endfacet
  facet normal 0 0 -1
    outer loop
      vertex -22 14 0
      vertex -18.7 12.2 0
      vertex -18.847 12.1928 0
    endloop
  endfacet
  facet normal 0 0 -1
    outer loop
      vertex -21.4 10.5 0
      vertex -20.2 10.7 0
      vertex -21.4 -10.5 0
    endloop
  endfacet
  facet normal -0 0 -1
    outer loop
      vertex -20.2 10.7 0
      vertex -21.4 10.5 0
      vertex -20.1928 10.847 0
    endloop
  endfacet
  facet normal 0 0 -1
    outer loop
      vertex -21.4 10.5 0
      vertex -20.1712 10.9926 0
      vertex -20.1928 10.847 0
    endloop
  endfacet
  facet normal 0 0 -1
    outer loop
      vertex -21.4 10.5 0
      vertex -20.1354 11.1354 0
      vertex -20.1712 10.9926 0
    endloop
  endfacet
  facet normal 0 0 -1
    outer loop
      vertex -21.4 10.5 0
      vertex -20.0858 11.274 0
      vertex -20.1354 11.1354 0
    endloop
  endfacet
  facet normal 0 0 -1
    outer loop
      vertex -21.4 10.5 0
      vertex -20.0229 11.4071 0
      vertex -20.0858 11.274 0
    endloop
  endfacet
  facet normal 0 0 -1
    outer loop
      vertex -22 14 0
      vertex -20.0229 11.4071 0
      vertex -21.4 10.5 0
    endloop
  endfacet
  facet normal 0 0 -1
    outer loop
      vertex -20.0229 11.4071 0
      vertex -22 14 0
      vertex -19.9472 11.5334 0
    endloop
  endfacet
  facet normal 0 0 -1
    outer loop
      vertex -19.9472 11.5334 0
      vertex -22 14 0
      vertex -19.8595 11.6516 0
    endloop
  endfacet
  facet normal 0 0 -1
    outer loop
      vertex -19.8595 11.6516 0
      vertex -22 14 0
      vertex -19.7607 11.7607 0
    endloop
  endfacet
  facet normal 0 0 -1
    outer loop
      vertex -18.7 12.2 0
      vertex -22 14 0
      vertex -3 14 0
    endloop
  endfacet
  facet normal 0 0 -1
    outer loop
      vertex -18.9926 12.1712 0
      vertex -22 14 0
      vertex -18.847 12.1928 0
    endloop
  endfacet
  facet normal 0 0 -1
    outer loop
      vertex -19.1354 12.1354 0
      vertex -22 14 0
      vertex -18.9926 12.1712 0
    endloop
  endfacet
  facet normal 0 0 -1
    outer loop
      vertex -19.274 12.0858 0
      vertex -22 14 0
      vertex -19.1354 12.1354 0
    endloop
  endfacet
  facet normal 0 0 -1
    outer loop
      vertex -19.4071 12.0229 0
      vertex -22 14 0
      vertex -19.274 12.0858 0
    endloop
  endfacet
  facet normal 0 0 -1
    outer loop
      vertex -19.5334 11.9472 0
      vertex -22 14 0
      vertex -19.4071 12.0229 0
    endloop
  endfacet
  facet normal 0 0 -1
    outer loop
      vertex -19.6516 11.8595 0
      vertex -22 14 0
      vertex -19.5334 11.9472 0
    endloop
  endfacet
  facet normal 0 0 -1
    outer loop
      vertex -19.7607 11.7607 0
      vertex -22 14 0
      vertex -19.6516 11.8595 0
    endloop
  endfacet
  facet normal 0 0 -1
    outer loop
      vertex -21.4 10.5 0
      vertex -22.2941 13.9855 0
      vertex -22 14 0
    endloop
  endfacet
  facet normal 0 0 -1
    outer loop
      vertex -21.4 10.5 0
      vertex -22.5853 13.9424 0
      vertex -22.2941 13.9855 0
    endloop
  endfacet
  facet normal 0 0 -1
    outer loop
      vertex -21.4 10.5 0
      vertex -22.8708 13.8708 0
      vertex -22.5853 13.9424 0
    endloop
  endfacet
  facet normal 0 0 -1
    outer loop
      vertex -21.4 10.5 0
      vertex -23.1481 13.7716 0
      vertex -22.8708 13.8708 0
    endloop
  endfacet
  facet normal 0 0 -1
    outer loop
      vertex -21.4 10.5 0
      vertex -23.4142 13.6458 0
      vertex -23.1481 13.7716 0
    endloop
  endfacet
  facet normal 0 0 -1
    outer loop
      vertex -23.6 10.5 0
      vertex -23.4142 13.6458 0
      vertex -21.4 10.5 0
    endloop
  endfacet
  facet normal 0 0 -1
    outer loop
      vertex -23.6 10.5 0
      vertex -23.6667 13.4944 0
      vertex -23.4142 13.6458 0
    endloop
  endfacet
  facet normal -0 0 -1
    outer loop
      vertex -23.6 -10.5 0
      vertex -25 -11 0
      vertex -23.6 10.5 0
    endloop
  endfacet
  facet normal 0 0 -1
    outer loop
      vertex -24.1213 -13.1213 0
      vertex -23.6 -10.5 0
      vertex -23.9032 -13.319 0
    endloop
  endfacet
  facet normal 0 0 -1
    outer loop
      vertex -25 11 0
      vertex -23.6 10.5 0
      vertex -25 -11 0
    endloop
  endfacet
  facet normal 0 0 -1
    outer loop
      vertex -24.319 -12.9032 0
      vertex -23.6 -10.5 0
      vertex -24.1213 -13.1213 0
    endloop
  endfacet
  facet normal 0 -0 -1
    outer loop
      vertex -24.9855 11.2941 0
      vertex -23.6 10.5 0
      vertex -25 11 0
    endloop
  endfacet
  facet normal 0 0 -1
    outer loop
      vertex -24.4944 -12.6667 0
      vertex -23.6 -10.5 0
      vertex -24.319 -12.9032 0
    endloop
  endfacet
  facet normal 0 0 -1
    outer loop
      vertex -23.6 10.5 0
      vertex -23.9032 13.319 0
      vertex -23.6667 13.4944 0
    endloop
  endfacet
  facet normal 0 0 -1
    outer loop
      vertex -24.6458 -12.4142 0
      vertex -23.6 -10.5 0
      vertex -24.4944 -12.6667 0
    endloop
  endfacet
  facet normal 0 0 -1
    outer loop
      vertex -23.6 10.5 0
      vertex -24.1213 13.1213 0
      vertex -23.9032 13.319 0
    endloop
  endfacet
  facet normal 0 0 -1
    outer loop
      vertex -24.7716 -12.1481 0
      vertex -23.6 -10.5 0
      vertex -24.6458 -12.4142 0
    endloop
  endfacet
  facet normal 0 0 -1
    outer loop
      vertex -23.6 10.5 0
      vertex -24.319 12.9032 0
      vertex -24.1213 13.1213 0
    endloop
  endfacet
  facet normal 0 0 -1
    outer loop
      vertex -24.8708 -11.8708 0
      vertex -23.6 -10.5 0
      vertex -24.7716 -12.1481 0
    endloop
  endfacet
  facet normal 0 0 -1
    outer loop
      vertex -23.6 10.5 0
      vertex -24.4944 12.6667 0
      vertex -24.319 12.9032 0
    endloop
  endfacet
  facet normal 0 0 -1
    outer loop
      vertex -24.9424 -11.5853 0
      vertex -23.6 -10.5 0
      vertex -24.8708 -11.8708 0
    endloop
  endfacet
  facet normal 0 0 -1
    outer loop
      vertex -23.6 10.5 0
      vertex -24.6458 12.4142 0
      vertex -24.4944 12.6667 0
    endloop
  endfacet
  facet normal 0 0 -1
    outer loop
      vertex -24.9855 -11.2941 0
      vertex -23.6 -10.5 0
      vertex -24.9424 -11.5853 0
    endloop
  endfacet
  facet normal 0 0 -1
    outer loop
      vertex -23.6 10.5 0
      vertex -24.7716 12.1481 0
      vertex -24.6458 12.4142 0
    endloop
  endfacet
  facet normal 0 0 -1
    outer loop
      vertex -23.6 -10.5 0
      vertex -24.9855 -11.2941 0
      vertex -25 -11 0
    endloop
  endfacet
  facet normal 0 0 -1
    outer loop
      vertex -23.6 10.5 0
      vertex -24.8708 11.8708 0
      vertex -24.7716 12.1481 0
    endloop
  endfacet
  facet normal 0 0 -1
    outer loop
      vertex -23.6 10.5 0
      vertex -24.9424 11.5853 0
      vertex -24.8708 11.8708 0
    endloop
  endfacet
  facet normal 0 0 -1
    outer loop
      vertex -23.6 10.5 0
      vertex -24.9855 11.2941 0
      vertex -24.9424 11.5853 0
    endloop
  endfacet
  facet normal 0.671607 -0.740908 0
    outer loop
      vertex 23.9032 -13.319 0
      vertex 24.1213 -13.1213 4
      vertex 23.9032 -13.319 4
    endloop
  endfacet
  facet normal 0.671607 -0.740908 0
    outer loop
      vertex 24.1213 -13.1213 4
      vertex 23.9032 -13.319 0
      vertex 24.1213 -13.1213 0
    endloop
  endfacet
  facet normal -0.0489209 0.998803 0
    outer loop
      vertex 18.847 -12.1928 0
      vertex 18.7 -12.2 4
      vertex 18.847 -12.1928 4
    endloop
  endfacet
  facet normal -0.0489209 0.998803 0
    outer loop
      vertex 18.7 -12.2 4
      vertex 18.847 -12.1928 0
      vertex 18.7 -12.2 0
    endloop
  endfacet
  facet normal 0.243175 0.969982 -0
    outer loop
      vertex -18.9926 -12.1712 0
      vertex -19.1354 -12.1354 4
      vertex -18.9926 -12.1712 4
    endloop
  endfacet
  facet normal 0.243175 0.969982 0
    outer loop
      vertex -19.1354 -12.1354 4
      vertex -18.9926 -12.1712 0
      vertex -19.1354 -12.1354 0
    endloop
  endfacet
  facet normal 0.941527 -0.336939 0
    outer loop
      vertex -20.1354 11.1354 4
      vertex -20.0858 11.274 0
      vertex -20.0858 11.274 4
    endloop
  endfacet
  facet normal 0.941527 -0.336939 0
    outer loop
      vertex -20.0858 11.274 0
      vertex -20.1354 11.1354 4
      vertex -20.1354 11.1354 0
    endloop
  endfacet
  facet normal 1 -0 0
    outer loop
      vertex -20.2 -10.7 4
      vertex -20.2 10.7 0
      vertex -20.2 10.7 4
    endloop
  endfacet
  facet normal 1 0 0
    outer loop
      vertex -20.2 10.7 0
      vertex -20.2 -10.7 4
      vertex -20.2 -10.7 0
    endloop
  endfacet
  facet normal -0.427269 -0.904125 0
    outer loop
      vertex 19.274 12.0858 0
      vertex 19.4071 12.0229 4
      vertex 19.274 12.0858 4
    endloop
  endfacet
  facet normal -0.427269 -0.904125 -0
    outer loop
      vertex 19.4071 12.0229 4
      vertex 19.274 12.0858 0
      vertex 19.4071 12.0229 0
    endloop
  endfacet
  facet normal 0.969982 -0.243175 0
    outer loop
      vertex -20.1712 10.9926 4
      vertex -20.1354 11.1354 0
      vertex -20.1354 11.1354 4
    endloop
  endfacet
  facet normal 0.969982 -0.243175 0
    outer loop
      vertex -20.1354 11.1354 0
      vertex -20.1712 10.9926 4
      vertex -20.1712 10.9926 0
    endloop
  endfacet
  facet normal -0.0489209 -0.998803 0
    outer loop
      vertex 18.7 12.2 0
      vertex 18.847 12.1928 4
      vertex 18.7 12.2 4
    endloop
  endfacet
  facet normal -0.0489209 -0.998803 -0
    outer loop
      vertex 18.847 12.1928 4
      vertex 18.7 12.2 0
      vertex 18.847 12.1928 0
    endloop
  endfacet
  facet normal 0.857733 0.514096 0
    outer loop
      vertex -19.9472 -11.5334 4
      vertex -20.0229 -11.4071 0
      vertex -20.0229 -11.4071 4
    endloop
  endfacet
  facet normal 0.857733 0.514096 0
    outer loop
      vertex -20.0229 -11.4071 0
      vertex -19.9472 -11.5334 4
      vertex -19.9472 -11.5334 0
    endloop
  endfacet
  facet normal 0 1 -0
    outer loop
      vertex 18.7 -12.2 0
      vertex -18.7 -12.2 4
      vertex 18.7 -12.2 4
    endloop
  endfacet
  facet normal 0 1 0
    outer loop
      vertex -18.7 -12.2 4
      vertex 18.7 -12.2 0
      vertex -18.7 -12.2 0
    endloop
  endfacet
  facet normal 0.146746 -0.989174 0
    outer loop
      vertex -18.9926 12.1712 0
      vertex -18.847 12.1928 4
      vertex -18.9926 12.1712 4
    endloop
  endfacet
  facet normal 0.146746 -0.989174 0
    outer loop
      vertex -18.847 12.1928 4
      vertex -18.9926 12.1712 0
      vertex -18.847 12.1928 0
    endloop
  endfacet
  facet normal 0.998803 0.0489209 0
    outer loop
      vertex -20.1928 -10.847 4
      vertex -20.2 -10.7 0
      vertex -20.2 -10.7 4
    endloop
  endfacet
  facet normal 0.998803 0.0489209 0
    outer loop
      vertex -20.2 -10.7 0
      vertex -20.1928 -10.847 4
      vertex -20.1928 -10.847 0
    endloop
  endfacet
  facet normal 0 -1 0
    outer loop
      vertex -18.7 12.2 0
      vertex -3 12.2 4
      vertex -18.7 12.2 4
    endloop
  endfacet
  facet normal 0 -1 -0
    outer loop
      vertex -3 12.2 4
      vertex -18.7 12.2 0
      vertex -3 12.2 0
    endloop
  endfacet
  facet normal 0 -1 0
    outer loop
      vertex 3 12.2 0
      vertex 18.7 12.2 4
      vertex 3 12.2 4
    endloop
  endfacet
  facet normal 0 -1 -0
    outer loop
      vertex 18.7 12.2 4
      vertex 3 12.2 0
      vertex 18.7 12.2 0
    endloop
  endfacet
  facet normal 0.0489209 0.998803 -0
    outer loop
      vertex -18.7 -12.2 0
      vertex -18.847 -12.1928 4
      vertex -18.7 -12.2 4
    endloop
  endfacet
  facet normal 0.0489209 0.998803 0
    outer loop
      vertex -18.847 -12.1928 4
      vertex -18.7 -12.2 0
      vertex -18.847 -12.1928 0
    endloop
  endfacet
  facet normal -0.857733 0.514096 0
    outer loop
      vertex 19.9472 -11.5334 0
      vertex 20.0229 -11.4071 4
      vertex 20.0229 -11.4071 0
    endloop
  endfacet
  facet normal -0.857733 0.514096 0
    outer loop
      vertex 20.0229 -11.4071 4
      vertex 19.9472 -11.5334 0
      vertex 19.9472 -11.5334 4
    endloop
  endfacet
  facet normal 0.146746 0.989174 -0
    outer loop
      vertex -18.847 -12.1928 0
      vertex -18.9926 -12.1712 4
      vertex -18.847 -12.1928 4
    endloop
  endfacet
  facet normal 0.146746 0.989174 0
    outer loop
      vertex -18.9926 -12.1712 4
      vertex -18.847 -12.1928 0
      vertex -18.9926 -12.1712 0
    endloop
  endfacet
  facet normal -0.336939 0.941527 0
    outer loop
      vertex 19.274 -12.0858 0
      vertex 19.1354 -12.1354 4
      vertex 19.274 -12.0858 4
    endloop
  endfacet
  facet normal -0.336939 0.941527 0
    outer loop
      vertex 19.1354 -12.1354 4
      vertex 19.274 -12.0858 0
      vertex 19.1354 -12.1354 0
    endloop
  endfacet
  facet normal -0.146746 -0.989174 0
    outer loop
      vertex 18.847 12.1928 0
      vertex 18.9926 12.1712 4
      vertex 18.847 12.1928 4
    endloop
  endfacet
  facet normal -0.146746 -0.989174 -0
    outer loop
      vertex 18.9926 12.1712 4
      vertex 18.847 12.1928 0
      vertex 18.9926 12.1712 0
    endloop
  endfacet
  facet normal 0.243175 -0.969982 0
    outer loop
      vertex -19.1354 12.1354 0
      vertex -18.9926 12.1712 4
      vertex -19.1354 12.1354 4
    endloop
  endfacet
  facet normal 0.243175 -0.969982 0
    outer loop
      vertex -18.9926 12.1712 4
      vertex -19.1354 12.1354 0
      vertex -18.9926 12.1712 0
    endloop
  endfacet
  facet normal 0.671251 -0.74123 0
    outer loop
      vertex -19.7607 11.7607 0
      vertex -19.6516 11.8595 4
      vertex -19.7607 11.7607 4
    endloop
  endfacet
  facet normal 0.671251 -0.74123 0
    outer loop
      vertex -19.6516 11.8595 4
      vertex -19.7607 11.7607 0
      vertex -19.6516 11.8595 0
    endloop
  endfacet
  facet normal -0.514096 0.857733 0
    outer loop
      vertex 19.5334 -11.9472 0
      vertex 19.4071 -12.0229 4
      vertex 19.5334 -11.9472 4
    endloop
  endfacet
  facet normal -0.514096 0.857733 0
    outer loop
      vertex 19.4071 -12.0229 4
      vertex 19.5334 -11.9472 0
      vertex 19.4071 -12.0229 0
    endloop
  endfacet
  facet normal 0.74123 -0.671251 0
    outer loop
      vertex -19.8595 11.6516 4
      vertex -19.7607 11.7607 0
      vertex -19.7607 11.7607 4
    endloop
  endfacet
  facet normal 0.74123 -0.671251 0
    outer loop
      vertex -19.7607 11.7607 0
      vertex -19.8595 11.6516 4
      vertex -19.8595 11.6516 0
    endloop
  endfacet
  facet normal -0.904125 0.427269 0
    outer loop
      vertex 20.0229 -11.4071 0
      vertex 20.0858 -11.274 4
      vertex 20.0858 -11.274 0
    endloop
  endfacet
  facet normal -0.904125 0.427269 0
    outer loop
      vertex 20.0858 -11.274 4
      vertex 20.0229 -11.4071 0
      vertex 20.0229 -11.4071 4
    endloop
  endfacet
  facet normal -0.904125 -0.427269 0
    outer loop
      vertex 20.0858 11.274 0
      vertex 20.0229 11.4071 4
      vertex 20.0229 11.4071 0
    endloop
  endfacet
  facet normal -0.904125 -0.427269 0
    outer loop
      vertex 20.0229 11.4071 4
      vertex 20.0858 11.274 0
      vertex 20.0858 11.274 4
    endloop
  endfacet
  facet normal 0.0489209 -0.998803 0
    outer loop
      vertex -18.847 12.1928 0
      vertex -18.7 12.2 4
      vertex -18.847 12.1928 4
    endloop
  endfacet
  facet normal 0.0489209 -0.998803 0
    outer loop
      vertex -18.7 12.2 4
      vertex -18.847 12.1928 0
      vertex -18.7 12.2 0
    endloop
  endfacet
  facet normal -0.336939 -0.941527 0
    outer loop
      vertex 19.1354 12.1354 0
      vertex 19.274 12.0858 4
      vertex 19.1354 12.1354 4
    endloop
  endfacet
  facet normal -0.336939 -0.941527 -0
    outer loop
      vertex 19.274 12.0858 4
      vertex 19.1354 12.1354 0
      vertex 19.274 12.0858 0
    endloop
  endfacet
  facet normal -0.998803 -0.0489209 0
    outer loop
      vertex 20.2 10.7 0
      vertex 20.1928 10.847 4
      vertex 20.1928 10.847 0
    endloop
  endfacet
  facet normal -0.998803 -0.0489209 0
    outer loop
      vertex 20.1928 10.847 4
      vertex 20.2 10.7 0
      vertex 20.2 10.7 4
    endloop
  endfacet
  facet normal 0.803088 0.595861 0
    outer loop
      vertex -19.8595 -11.6516 4
      vertex -19.9472 -11.5334 0
      vertex -19.9472 -11.5334 4
    endloop
  endfacet
  facet normal 0.803088 0.595861 0
    outer loop
      vertex -19.9472 -11.5334 0
      vertex -19.8595 -11.6516 4
      vertex -19.8595 -11.6516 0
    endloop
  endfacet
  facet normal 0.595861 0.803088 -0
    outer loop
      vertex -19.5334 -11.9472 0
      vertex -19.6516 -11.8595 4
      vertex -19.5334 -11.9472 4
    endloop
  endfacet
  facet normal 0.595861 0.803088 0
    outer loop
      vertex -19.6516 -11.8595 4
      vertex -19.5334 -11.9472 0
      vertex -19.6516 -11.8595 0
    endloop
  endfacet
  facet normal 0.989174 -0.146746 0
    outer loop
      vertex -20.1928 10.847 4
      vertex -20.1712 10.9926 0
      vertex -20.1712 10.9926 4
    endloop
  endfacet
  facet normal 0.989174 -0.146746 0
    outer loop
      vertex -20.1712 10.9926 0
      vertex -20.1928 10.847 4
      vertex -20.1928 10.847 0
    endloop
  endfacet
  facet normal 0.74123 0.671251 0
    outer loop
      vertex -19.7607 -11.7607 4
      vertex -19.8595 -11.6516 0
      vertex -19.8595 -11.6516 4
    endloop
  endfacet
  facet normal 0.74123 0.671251 0
    outer loop
      vertex -19.8595 -11.6516 0
      vertex -19.7607 -11.7607 4
      vertex -19.7607 -11.7607 0
    endloop
  endfacet
  facet normal -0.989174 0.146746 0
    outer loop
      vertex 20.1712 -10.9926 0
      vertex 20.1928 -10.847 4
      vertex 20.1928 -10.847 0
    endloop
  endfacet
  facet normal -0.989174 0.146746 0
    outer loop
      vertex 20.1928 -10.847 4
      vertex 20.1712 -10.9926 0
      vertex 20.1712 -10.9926 4
    endloop
  endfacet
  facet normal 0.514096 0.857733 -0
    outer loop
      vertex -19.4071 -12.0229 0
      vertex -19.5334 -11.9472 4
      vertex -19.4071 -12.0229 4
    endloop
  endfacet
  facet normal 0.514096 0.857733 0
    outer loop
      vertex -19.5334 -11.9472 4
      vertex -19.4071 -12.0229 0
      vertex -19.5334 -11.9472 0
    endloop
  endfacet
  facet normal 0.998803 -0.0489209 0
    outer loop
      vertex -20.2 10.7 4
      vertex -20.1928 10.847 0
      vertex -20.1928 10.847 4
    endloop
  endfacet
  facet normal 0.998803 -0.0489209 0
    outer loop
      vertex -20.1928 10.847 0
      vertex -20.2 10.7 4
      vertex -20.2 10.7 0
    endloop
  endfacet
  facet normal -1 0 0
    outer loop
      vertex 20.2 -10.7 0
      vertex 20.2 10.7 4
      vertex 20.2 10.7 0
    endloop
  endfacet
  facet normal -1 -0 0
    outer loop
      vertex 20.2 10.7 4
      vertex 20.2 -10.7 0
      vertex 20.2 -10.7 4
    endloop
  endfacet
  facet normal -0.243175 -0.969982 0
    outer loop
      vertex 18.9926 12.1712 0
      vertex 19.1354 12.1354 4
      vertex 18.9926 12.1712 4
    endloop
  endfacet
  facet normal -0.243175 -0.969982 -0
    outer loop
      vertex 19.1354 12.1354 4
      vertex 18.9926 12.1712 0
      vertex 19.1354 12.1354 0
    endloop
  endfacet
  facet normal -0.514096 -0.857733 0
    outer loop
      vertex 19.4071 12.0229 0
      vertex 19.5334 11.9472 4
      vertex 19.4071 12.0229 4
    endloop
  endfacet
  facet normal -0.514096 -0.857733 -0
    outer loop
      vertex 19.5334 11.9472 4
      vertex 19.4071 12.0229 0
      vertex 19.5334 11.9472 0
    endloop
  endfacet
  facet normal -0.998803 0.0489209 0
    outer loop
      vertex 20.1928 -10.847 0
      vertex 20.2 -10.7 4
      vertex 20.2 -10.7 0
    endloop
  endfacet
  facet normal -0.998803 0.0489209 0
    outer loop
      vertex 20.2 -10.7 4
      vertex 20.1928 -10.847 0
      vertex 20.1928 -10.847 4
    endloop
  endfacet
  facet normal -0.857733 -0.514096 0
    outer loop
      vertex 20.0229 11.4071 0
      vertex 19.9472 11.5334 4
      vertex 19.9472 11.5334 0
    endloop
  endfacet
  facet normal -0.857733 -0.514096 0
    outer loop
      vertex 19.9472 11.5334 4
      vertex 20.0229 11.4071 0
      vertex 20.0229 11.4071 4
    endloop
  endfacet
  facet normal 0.595861 -0.803088 0
    outer loop
      vertex -19.6516 11.8595 0
      vertex -19.5334 11.9472 4
      vertex -19.6516 11.8595 4
    endloop
  endfacet
  facet normal 0.595861 -0.803088 0
    outer loop
      vertex -19.5334 11.9472 4
      vertex -19.6516 11.8595 0
      vertex -19.5334 11.9472 0
    endloop
  endfacet
  facet normal -0.941527 -0.336939 0
    outer loop
      vertex 20.1354 11.1354 0
      vertex 20.0858 11.274 4
      vertex 20.0858 11.274 0
    endloop
  endfacet
  facet normal -0.941527 -0.336939 0
    outer loop
      vertex 20.0858 11.274 4
      vertex 20.1354 11.1354 0
      vertex 20.1354 11.1354 4
    endloop
  endfacet
  facet normal -0.989174 -0.146746 0
    outer loop
      vertex 20.1928 10.847 0
      vertex 20.1712 10.9926 4
      vertex 20.1712 10.9926 0
    endloop
  endfacet
  facet normal -0.989174 -0.146746 0
    outer loop
      vertex 20.1712 10.9926 4
      vertex 20.1928 10.847 0
      vertex 20.1928 10.847 4
    endloop
  endfacet
  facet normal 0.427269 0.904125 -0
    outer loop
      vertex -19.274 -12.0858 0
      vertex -19.4071 -12.0229 4
      vertex -19.274 -12.0858 4
    endloop
  endfacet
  facet normal 0.427269 0.904125 0
    outer loop
      vertex -19.4071 -12.0229 4
      vertex -19.274 -12.0858 0
      vertex -19.4071 -12.0229 0
    endloop
  endfacet
  facet normal -0.74123 0.671251 0
    outer loop
      vertex 19.7607 -11.7607 0
      vertex 19.8595 -11.6516 4
      vertex 19.8595 -11.6516 0
    endloop
  endfacet
  facet normal -0.74123 0.671251 0
    outer loop
      vertex 19.8595 -11.6516 4
      vertex 19.7607 -11.7607 0
      vertex 19.7607 -11.7607 4
    endloop
  endfacet
  facet normal -0.595861 0.803088 0
    outer loop
      vertex 19.6516 -11.8595 0
      vertex 19.5334 -11.9472 4
      vertex 19.6516 -11.8595 4
    endloop
  endfacet
  facet normal -0.595861 0.803088 0
    outer loop
      vertex 19.5334 -11.9472 4
      vertex 19.6516 -11.8595 0
      vertex 19.5334 -11.9472 0
    endloop
  endfacet
  facet normal 0.941527 0.336939 0
    outer loop
      vertex -20.0858 -11.274 4
      vertex -20.1354 -11.1354 0
      vertex -20.1354 -11.1354 4
    endloop
  endfacet
  facet normal 0.941527 0.336939 0
    outer loop
      vertex -20.1354 -11.1354 0
      vertex -20.0858 -11.274 4
      vertex -20.0858 -11.274 0
    endloop
  endfacet
  facet normal 0.336939 -0.941527 0
    outer loop
      vertex -19.274 12.0858 0
      vertex -19.1354 12.1354 4
      vertex -19.274 12.0858 4
    endloop
  endfacet
  facet normal 0.336939 -0.941527 0
    outer loop
      vertex -19.1354 12.1354 4
      vertex -19.274 12.0858 0
      vertex -19.1354 12.1354 0
    endloop
  endfacet
  facet normal 0.336939 0.941527 -0
    outer loop
      vertex -19.1354 -12.1354 0
      vertex -19.274 -12.0858 4
      vertex -19.1354 -12.1354 4
    endloop
  endfacet
  facet normal 0.336939 0.941527 0
    outer loop
      vertex -19.274 -12.0858 4
      vertex -19.1354 -12.1354 0
      vertex -19.274 -12.0858 0
    endloop
  endfacet
  facet normal 0.904125 0.427269 0
    outer loop
      vertex -20.0229 -11.4071 4
      vertex -20.0858 -11.274 0
      vertex -20.0858 -11.274 4
    endloop
  endfacet
  facet normal 0.904125 0.427269 0
    outer loop
      vertex -20.0858 -11.274 0
      vertex -20.0229 -11.4071 4
      vertex -20.0229 -11.4071 0
    endloop
  endfacet
  facet normal -0.803088 0.595861 0
    outer loop
      vertex 19.8595 -11.6516 0
      vertex 19.9472 -11.5334 4
      vertex 19.9472 -11.5334 0
    endloop
  endfacet
  facet normal -0.803088 0.595861 0
    outer loop
      vertex 19.9472 -11.5334 4
      vertex 19.8595 -11.6516 0
      vertex 19.8595 -11.6516 4
    endloop
  endfacet
  facet normal -0.803088 -0.595861 0
    outer loop
      vertex 19.9472 11.5334 0
      vertex 19.8595 11.6516 4
      vertex 19.8595 11.6516 0
    endloop
  endfacet
  facet normal -0.803088 -0.595861 0
    outer loop
      vertex 19.8595 11.6516 4
      vertex 19.9472 11.5334 0
      vertex 19.9472 11.5334 4
    endloop
  endfacet
  facet normal -0.427269 0.904125 0
    outer loop
      vertex 19.4071 -12.0229 0
      vertex 19.274 -12.0858 4
      vertex 19.4071 -12.0229 4
    endloop
  endfacet
  facet normal -0.427269 0.904125 0
    outer loop
      vertex 19.274 -12.0858 4
      vertex 19.4071 -12.0229 0
      vertex 19.274 -12.0858 0
    endloop
  endfacet
  facet normal -0.146746 0.989174 0
    outer loop
      vertex 18.9926 -12.1712 0
      vertex 18.847 -12.1928 4
      vertex 18.9926 -12.1712 4
    endloop
  endfacet
  facet normal -0.146746 0.989174 0
    outer loop
      vertex 18.847 -12.1928 4
      vertex 18.9926 -12.1712 0
      vertex 18.847 -12.1928 0
    endloop
  endfacet
  facet normal 0.989174 0.146746 0
    outer loop
      vertex -20.1712 -10.9926 4
      vertex -20.1928 -10.847 0
      vertex -20.1928 -10.847 4
    endloop
  endfacet
  facet normal 0.989174 0.146746 0
    outer loop
      vertex -20.1928 -10.847 0
      vertex -20.1712 -10.9926 4
      vertex -20.1712 -10.9926 0
    endloop
  endfacet
  facet normal 0.803088 -0.595861 0
    outer loop
      vertex -19.9472 11.5334 4
      vertex -19.8595 11.6516 0
      vertex -19.8595 11.6516 4
    endloop
  endfacet
  facet normal 0.803088 -0.595861 0
    outer loop
      vertex -19.8595 11.6516 0
      vertex -19.9472 11.5334 4
      vertex -19.9472 11.5334 0
    endloop
  endfacet
  facet normal 0.969982 0.243175 0
    outer loop
      vertex -20.1354 -11.1354 4
      vertex -20.1712 -10.9926 0
      vertex -20.1712 -10.9926 4
    endloop
  endfacet
  facet normal 0.969982 0.243175 0
    outer loop
      vertex -20.1712 -10.9926 0
      vertex -20.1354 -11.1354 4
      vertex -20.1354 -11.1354 0
    endloop
  endfacet
  facet normal 0.427269 -0.904125 0
    outer loop
      vertex -19.4071 12.0229 0
      vertex -19.274 12.0858 4
      vertex -19.4071 12.0229 4
    endloop
  endfacet
  facet normal 0.427269 -0.904125 0
    outer loop
      vertex -19.274 12.0858 4
      vertex -19.4071 12.0229 0
      vertex -19.274 12.0858 0
    endloop
  endfacet
  facet normal 0.514096 -0.857733 0
    outer loop
      vertex -19.5334 11.9472 0
      vertex -19.4071 12.0229 4
      vertex -19.5334 11.9472 4
    endloop
  endfacet
  facet normal 0.514096 -0.857733 0
    outer loop
      vertex -19.4071 12.0229 4
      vertex -19.5334 11.9472 0
      vertex -19.4071 12.0229 0
    endloop
  endfacet
  facet normal -0.941527 0.336939 0
    outer loop
      vertex 20.0858 -11.274 0
      vertex 20.1354 -11.1354 4
      vertex 20.1354 -11.1354 0
    endloop
  endfacet
  facet normal -0.941527 0.336939 0
    outer loop
      vertex 20.1354 -11.1354 4
      vertex 20.0858 -11.274 0
      vertex 20.0858 -11.274 4
    endloop
  endfacet
  facet normal -0.74123 -0.671251 0
    outer loop
      vertex 19.8595 11.6516 0
      vertex 19.7607 11.7607 4
      vertex 19.7607 11.7607 0
    endloop
  endfacet
  facet normal -0.74123 -0.671251 0
    outer loop
      vertex 19.7607 11.7607 4
      vertex 19.8595 11.6516 0
      vertex 19.8595 11.6516 4
    endloop
  endfacet
  facet normal -0.671251 -0.74123 0
    outer loop
      vertex 19.6516 11.8595 0
      vertex 19.7607 11.7607 4
      vertex 19.6516 11.8595 4
    endloop
  endfacet
  facet normal -0.671251 -0.74123 -0
    outer loop
      vertex 19.7607 11.7607 4
      vertex 19.6516 11.8595 0
      vertex 19.7607 11.7607 0
    endloop
  endfacet
  facet normal -0.243175 0.969982 0
    outer loop
      vertex 19.1354 -12.1354 0
      vertex 18.9926 -12.1712 4
      vertex 19.1354 -12.1354 4
    endloop
  endfacet
  facet normal -0.243175 0.969982 0
    outer loop
      vertex 18.9926 -12.1712 4
      vertex 19.1354 -12.1354 0
      vertex 18.9926 -12.1712 0
    endloop
  endfacet
  facet normal 0.857733 -0.514096 0
    outer loop
      vertex -20.0229 11.4071 4
      vertex -19.9472 11.5334 0
      vertex -19.9472 11.5334 4
    endloop
  endfacet
  facet normal 0.857733 -0.514096 0
    outer loop
      vertex -19.9472 11.5334 0
      vertex -20.0229 11.4071 4
      vertex -20.0229 11.4071 0
    endloop
  endfacet
  facet normal 0.904125 -0.427269 0
    outer loop
      vertex -20.0858 11.274 4
      vertex -20.0229 11.4071 0
      vertex -20.0229 11.4071 4
    endloop
  endfacet
  facet normal 0.904125 -0.427269 0
    outer loop
      vertex -20.0229 11.4071 0
      vertex -20.0858 11.274 4
      vertex -20.0858 11.274 0
    endloop
  endfacet
  facet normal 0.671251 0.74123 -0
    outer loop
      vertex -19.6516 -11.8595 0
      vertex -19.7607 -11.7607 4
      vertex -19.6516 -11.8595 4
    endloop
  endfacet
  facet normal 0.671251 0.74123 0
    outer loop
      vertex -19.7607 -11.7607 4
      vertex -19.6516 -11.8595 0
      vertex -19.7607 -11.7607 0
    endloop
  endfacet
  facet normal -0.595861 -0.803088 0
    outer loop
      vertex 19.5334 11.9472 0
      vertex 19.6516 11.8595 4
      vertex 19.5334 11.9472 4
    endloop
  endfacet
  facet normal -0.595861 -0.803088 -0
    outer loop
      vertex 19.6516 11.8595 4
      vertex 19.5334 11.9472 0
      vertex 19.6516 11.8595 0
    endloop
  endfacet
  facet normal -0.969982 0.243175 0
    outer loop
      vertex 20.1354 -11.1354 0
      vertex 20.1712 -10.9926 4
      vertex 20.1712 -10.9926 0
    endloop
  endfacet
  facet normal -0.969982 0.243175 0
    outer loop
      vertex 20.1712 -10.9926 4
      vertex 20.1354 -11.1354 0
      vertex 20.1354 -11.1354 4
    endloop
  endfacet
  facet normal -0.671251 0.74123 0
    outer loop
      vertex 19.7607 -11.7607 0
      vertex 19.6516 -11.8595 4
      vertex 19.7607 -11.7607 4
    endloop
  endfacet
  facet normal -0.671251 0.74123 0
    outer loop
      vertex 19.6516 -11.8595 4
      vertex 19.7607 -11.7607 0
      vertex 19.6516 -11.8595 0
    endloop
  endfacet
  facet normal -0.969982 -0.243175 0
    outer loop
      vertex 20.1712 10.9926 0
      vertex 20.1354 11.1354 4
      vertex 20.1354 11.1354 0
    endloop
  endfacet
  facet normal -0.969982 -0.243175 0
    outer loop
      vertex 20.1354 11.1354 4
      vertex 20.1712 10.9926 0
      vertex 20.1712 10.9926 4
    endloop
  endfacet
  facet normal -1 0 0
    outer loop
      vertex 3 12.2 0
      vertex 3 14 4
      vertex 3 14 0
    endloop
  endfacet
  facet normal -1 -0 0
    outer loop
      vertex 3 14 4
      vertex 3 12.2 0
      vertex 3 12.2 4
    endloop
  endfacet
  facet normal 1 -0 0
    outer loop
      vertex -3 12.2 4
      vertex -3 14 0
      vertex -3 14 4
    endloop
  endfacet
  facet normal 1 0 0
    outer loop
      vertex -3 14 0
      vertex -3 12.2 4
      vertex -3 12.2 0
    endloop
  endfacet
endsolid OpenSCAD_Model
