solid OpenSCAD_Model
  facet normal 0 0 -1
    outer loop
      vertex 30.1705 -35.8847 0
      vertex 29.5881 -35.9711 0
      vertex 29 -36 0
    endloop
  endfacet
  facet normal 0 0 -1
    outer loop
      vertex 33.9888 -33.3334 0
      vertex 32.3334 -34.9888 0
      vertex 31.2961 -35.5433 0
    endloop
  endfacet
  facet normal 0 0 -1
    outer loop
      vertex 30.1705 -35.8847 0
      vertex 31.2961 -35.5433 0
      vertex 30.7417 -35.7416 0
    endloop
  endfacet
  facet normal 0 0 -1
    outer loop
      vertex 31.2961 -35.5433 0
      vertex 32.3334 -34.9888 0
      vertex 31.8284 -35.2915 0
    endloop
  endfacet
  facet normal 0 0 -1
    outer loop
      vertex 33.9888 -33.3334 0
      vertex 33.638 -33.8064 0
      vertex 32.3334 -34.9888 0
    endloop
  endfacet
  facet normal 0 0 -1
    outer loop
      vertex 33.638 -33.8064 0
      vertex 33.2426 -34.2426 0
      vertex 32.8064 -34.6381 0
    endloop
  endfacet
  facet normal 0 0 -1
    outer loop
      vertex 32.3334 -34.9888 0
      vertex 33.638 -33.8064 0
      vertex 32.8064 -34.6381 0
    endloop
  endfacet
  facet normal 0 0 -1
    outer loop
      vertex 34.5433 -32.2961 0
      vertex 33.9888 -33.3334 0
      vertex 31.2961 -35.5433 0
    endloop
  endfacet
  facet normal 0 0 -1
    outer loop
      vertex 30.1705 -35.8847 0
      vertex 34.5433 -32.2961 0
      vertex 31.2961 -35.5433 0
    endloop
  endfacet
  facet normal 0 0 -1
    outer loop
      vertex 33.9888 -33.3334 0
      vertex 34.5433 -32.2961 0
      vertex 34.2915 -32.8284 0
    endloop
  endfacet
  facet normal 0 0 -1
    outer loop
      vertex 34.8847 -31.1705 0
      vertex 34.7416 -31.7417 0
      vertex 34.5433 -32.2961 0
    endloop
  endfacet
  facet normal 0 0 -1
    outer loop
      vertex 30.1705 -35.8847 0
      vertex 34.8847 -31.1705 0
      vertex 34.5433 -32.2961 0
    endloop
  endfacet
  facet normal -0 0 -1
    outer loop
      vertex 30.1705 -35.8847 0
      vertex 29 -36 0
      vertex 34.8847 -31.1705 0
    endloop
  endfacet
  facet normal 0 0 -1
    outer loop
      vertex 34.8847 -31.1705 0
      vertex 35 -30 0
      vertex 34.9711 -30.5881 0
    endloop
  endfacet
  facet normal -0 0 -1
    outer loop
      vertex 34.8847 -31.1705 0
      vertex 29 -36 0
      vertex 35 -30 0
    endloop
  endfacet
  facet normal 0 -0 -1
    outer loop
      vertex -29 36 0
      vertex 29 36 0
      vertex -35 30 0
    endloop
  endfacet
  facet normal 0 0 -1
    outer loop
      vertex 35 30 0
      vertex 34.8847 31.1705 0
      vertex 34.9711 30.5881 0
    endloop
  endfacet
  facet normal 0 0 -1
    outer loop
      vertex 34.5433 32.2961 0
      vertex 34.7416 31.7417 0
      vertex 34.8847 31.1705 0
    endloop
  endfacet
  facet normal 0 0 -1
    outer loop
      vertex 33.9888 33.3334 0
      vertex 31.2961 35.5433 0
      vertex 32.3334 34.9888 0
    endloop
  endfacet
  facet normal 0 0 -1
    outer loop
      vertex 33.9888 33.3334 0
      vertex 34.2915 32.8284 0
      vertex 34.5433 32.2961 0
    endloop
  endfacet
  facet normal -0 -0 -1
    outer loop
      vertex 33.638 33.8064 0
      vertex 33.9888 33.3334 0
      vertex 32.3334 34.9888 0
    endloop
  endfacet
  facet normal -0 -0 -1
    outer loop
      vertex 33.2426 34.2426 0
      vertex 33.638 33.8064 0
      vertex 32.8064 34.6381 0
    endloop
  endfacet
  facet normal -0 -0 -1
    outer loop
      vertex 32.8064 34.6381 0
      vertex 33.638 33.8064 0
      vertex 32.3334 34.9888 0
    endloop
  endfacet
  facet normal -0 -0 -1
    outer loop
      vertex 33.9888 33.3334 0
      vertex 34.5433 32.2961 0
      vertex 31.2961 35.5433 0
    endloop
  endfacet
  facet normal -0 -0 -1
    outer loop
      vertex 31.2961 35.5433 0
      vertex 34.5433 32.2961 0
      vertex 30.1705 35.8847 0
    endloop
  endfacet
  facet normal 0 0 -1
    outer loop
      vertex 31.2961 35.5433 0
      vertex 31.8284 35.2915 0
      vertex 32.3334 34.9888 0
    endloop
  endfacet
  facet normal -0 -0 -1
    outer loop
      vertex 30.7417 35.7416 0
      vertex 31.2961 35.5433 0
      vertex 30.1705 35.8847 0
    endloop
  endfacet
  facet normal 0 0 -1
    outer loop
      vertex 30.1705 35.8847 0
      vertex 34.5433 32.2961 0
      vertex 34.8847 31.1705 0
    endloop
  endfacet
  facet normal 0 0 -1
    outer loop
      vertex 29 36 0
      vertex 30.1705 35.8847 0
      vertex 34.8847 31.1705 0
    endloop
  endfacet
  facet normal 0 0 -1
    outer loop
      vertex 29 36 0
      vertex 29.5881 35.9711 0
      vertex 30.1705 35.8847 0
    endloop
  endfacet
  facet normal 0 0 -1
    outer loop
      vertex 35 30 0
      vertex 29 36 0
      vertex 34.8847 31.1705 0
    endloop
  endfacet
  facet normal 0 0 -1
    outer loop
      vertex -35 30 0
      vertex 29 36 0
      vertex 35 30 0
    endloop
  endfacet
  facet normal 0 0 -1
    outer loop
      vertex 35 -30 0
      vertex -35 30 0
      vertex 35 30 0
    endloop
  endfacet
  facet normal 0 0 -1
    outer loop
      vertex -29 36 0
      vertex -30.1705 35.8847 0
      vertex -29.5881 35.9711 0
    endloop
  endfacet
  facet normal 0 0 -1
    outer loop
      vertex -31.2961 35.5433 0
      vertex -30.7417 35.7416 0
      vertex -30.1705 35.8847 0
    endloop
  endfacet
  facet normal 0 0 -1
    outer loop
      vertex -32.3334 34.9888 0
      vertex -34.5433 32.2961 0
      vertex -33.9888 33.3334 0
    endloop
  endfacet
  facet normal 0 0 -1
    outer loop
      vertex -32.3334 34.9888 0
      vertex -31.8284 35.2915 0
      vertex -31.2961 35.5433 0
    endloop
  endfacet
  facet normal 0 -0 -1
    outer loop
      vertex -32.8064 34.6381 0
      vertex -32.3334 34.9888 0
      vertex -33.9888 33.3334 0
    endloop
  endfacet
  facet normal 0 -0 -1
    outer loop
      vertex -33.2426 34.2426 0
      vertex -32.8064 34.6381 0
      vertex -33.638 33.8064 0
    endloop
  endfacet
  facet normal 0 -0 -1
    outer loop
      vertex -33.638 33.8064 0
      vertex -32.8064 34.6381 0
      vertex -33.9888 33.3334 0
    endloop
  endfacet
  facet normal 0 -0 -1
    outer loop
      vertex -32.3334 34.9888 0
      vertex -31.2961 35.5433 0
      vertex -34.5433 32.2961 0
    endloop
  endfacet
  facet normal 0 -0 -1
    outer loop
      vertex -34.5433 32.2961 0
      vertex -31.2961 35.5433 0
      vertex -34.8847 31.1705 0
    endloop
  endfacet
  facet normal 0 0 -1
    outer loop
      vertex -34.5433 32.2961 0
      vertex -34.2915 32.8284 0
      vertex -33.9888 33.3334 0
    endloop
  endfacet
  facet normal 0 -0 -1
    outer loop
      vertex -34.7416 31.7417 0
      vertex -34.5433 32.2961 0
      vertex -34.8847 31.1705 0
    endloop
  endfacet
  facet normal 0 0 -1
    outer loop
      vertex -34.8847 31.1705 0
      vertex -31.2961 35.5433 0
      vertex -30.1705 35.8847 0
    endloop
  endfacet
  facet normal 0 0 -1
    outer loop
      vertex -35 30 0
      vertex -34.8847 31.1705 0
      vertex -30.1705 35.8847 0
    endloop
  endfacet
  facet normal 0 0 -1
    outer loop
      vertex -35 30 0
      vertex -34.9711 30.5881 0
      vertex -34.8847 31.1705 0
    endloop
  endfacet
  facet normal 0 0 -1
    outer loop
      vertex -29 36 0
      vertex -35 30 0
      vertex -30.1705 35.8847 0
    endloop
  endfacet
  facet normal 0 0 -1
    outer loop
      vertex 35 -30 0
      vertex -35 -30 0
      vertex -35 30 0
    endloop
  endfacet
  facet normal -0 0 -1
    outer loop
      vertex 35 -30 0
      vertex 29 -36 0
      vertex -35 -30 0
    endloop
  endfacet
  facet normal 0 0 -1
    outer loop
      vertex -35 -30 0
      vertex -34.8847 -31.1705 0
      vertex -34.9711 -30.5881 0
    endloop
  endfacet
  facet normal 0 0 -1
    outer loop
      vertex -34.5433 -32.2961 0
      vertex -34.7416 -31.7417 0
      vertex -34.8847 -31.1705 0
    endloop
  endfacet
  facet normal 0 0 -1
    outer loop
      vertex -33.9888 -33.3334 0
      vertex -34.5433 -32.2961 0
      vertex -32.3334 -34.9888 0
    endloop
  endfacet
  facet normal 0 0 -1
    outer loop
      vertex -33.9888 -33.3334 0
      vertex -34.2915 -32.8284 0
      vertex -34.5433 -32.2961 0
    endloop
  endfacet
  facet normal 0 0 -1
    outer loop
      vertex -32.8064 -34.6381 0
      vertex -33.9888 -33.3334 0
      vertex -32.3334 -34.9888 0
    endloop
  endfacet
  facet normal 0 0 -1
    outer loop
      vertex -33.2426 -34.2426 0
      vertex -33.638 -33.8064 0
      vertex -32.8064 -34.6381 0
    endloop
  endfacet
  facet normal 0 0 -1
    outer loop
      vertex -32.8064 -34.6381 0
      vertex -33.638 -33.8064 0
      vertex -33.9888 -33.3334 0
    endloop
  endfacet
  facet normal 0 0 -1
    outer loop
      vertex -32.3334 -34.9888 0
      vertex -34.5433 -32.2961 0
      vertex -31.2961 -35.5433 0
    endloop
  endfacet
  facet normal 0 0 -1
    outer loop
      vertex -31.2961 -35.5433 0
      vertex -34.5433 -32.2961 0
      vertex -34.8847 -31.1705 0
    endloop
  endfacet
  facet normal 0 0 -1
    outer loop
      vertex -31.2961 -35.5433 0
      vertex -31.8284 -35.2915 0
      vertex -32.3334 -34.9888 0
    endloop
  endfacet
  facet normal 0 0 -1
    outer loop
      vertex -30.7417 -35.7416 0
      vertex -31.2961 -35.5433 0
      vertex -30.1705 -35.8847 0
    endloop
  endfacet
  facet normal 0 0 -1
    outer loop
      vertex -30.1705 -35.8847 0
      vertex -31.2961 -35.5433 0
      vertex -34.8847 -31.1705 0
    endloop
  endfacet
  facet normal 0 0 -1
    outer loop
      vertex -35 -30 0
      vertex -30.1705 -35.8847 0
      vertex -34.8847 -31.1705 0
    endloop
  endfacet
  facet normal 0 0 -1
    outer loop
      vertex -29 -36 0
      vertex -29.5881 -35.9711 0
      vertex -30.1705 -35.8847 0
    endloop
  endfacet
  facet normal 0 0 -1
    outer loop
      vertex -35 -30 0
      vertex -29 -36 0
      vertex -30.1705 -35.8847 0
    endloop
  endfacet
  facet normal 0 0 -1
    outer loop
      vertex -35 -30 0
      vertex 29 -36 0
      vertex -29 -36 0
    endloop
  endfacet
  facet normal 0 0 1
    outer loop
      vertex 29 -36 2
      vertex 29.5881 -35.9711 2
      vertex 30.1705 -35.8847 2
    endloop
  endfacet
  facet normal 0 0 1
    outer loop
      vertex 31.2961 -35.5433 2
      vertex 32.3334 -34.9888 2
      vertex 33.9888 -33.3334 2
    endloop
  endfacet
  facet normal 0 -0 1
    outer loop
      vertex 30.7417 -35.7416 2
      vertex 31.2961 -35.5433 2
      vertex 30.1705 -35.8847 2
    endloop
  endfacet
  facet normal 0 -0 1
    outer loop
      vertex 31.8284 -35.2915 2
      vertex 32.3334 -34.9888 2
      vertex 31.2961 -35.5433 2
    endloop
  endfacet
  facet normal 0 0 1
    outer loop
      vertex 32.3334 -34.9888 2
      vertex 33.638 -33.8064 2
      vertex 33.9888 -33.3334 2
    endloop
  endfacet
  facet normal 0 0 1
    outer loop
      vertex 32.8064 -34.6381 2
      vertex 33.2426 -34.2426 2
      vertex 33.638 -33.8064 2
    endloop
  endfacet
  facet normal 0 -0 1
    outer loop
      vertex 32.8064 -34.6381 2
      vertex 33.638 -33.8064 2
      vertex 32.3334 -34.9888 2
    endloop
  endfacet
  facet normal 0 0 1
    outer loop
      vertex 31.2961 -35.5433 2
      vertex 33.9888 -33.3334 2
      vertex 34.5433 -32.2961 2
    endloop
  endfacet
  facet normal 0 -0 1
    outer loop
      vertex 31.2961 -35.5433 2
      vertex 34.5433 -32.2961 2
      vertex 30.1705 -35.8847 2
    endloop
  endfacet
  facet normal 0 -0 1
    outer loop
      vertex 34.2915 -32.8284 2
      vertex 34.5433 -32.2961 2
      vertex 33.9888 -33.3334 2
    endloop
  endfacet
  facet normal 0 0 1
    outer loop
      vertex 34.5433 -32.2961 2
      vertex 34.7416 -31.7417 2
      vertex 34.8847 -31.1705 2
    endloop
  endfacet
  facet normal 0 -0 1
    outer loop
      vertex 34.5433 -32.2961 2
      vertex 34.8847 -31.1705 2
      vertex 30.1705 -35.8847 2
    endloop
  endfacet
  facet normal 0 0 1
    outer loop
      vertex 34.8847 -31.1705 2
      vertex 29 -36 2
      vertex 30.1705 -35.8847 2
    endloop
  endfacet
  facet normal 0 -0 1
    outer loop
      vertex 34.9711 -30.5881 2
      vertex 35 -30 2
      vertex 34.8847 -31.1705 2
    endloop
  endfacet
  facet normal 0 0 1
    outer loop
      vertex 35 -30 2
      vertex 29 -36 2
      vertex 34.8847 -31.1705 2
    endloop
  endfacet
  facet normal 0 0 1
    outer loop
      vertex -35 30 2
      vertex 29 36 2
      vertex -29 36 2
    endloop
  endfacet
  facet normal 0 0 1
    outer loop
      vertex 34.9711 30.5881 2
      vertex 34.8847 31.1705 2
      vertex 35 30 2
    endloop
  endfacet
  facet normal 0 0 1
    outer loop
      vertex 34.8847 31.1705 2
      vertex 34.7416 31.7417 2
      vertex 34.5433 32.2961 2
    endloop
  endfacet
  facet normal 0 0 1
    outer loop
      vertex 32.3334 34.9888 2
      vertex 31.2961 35.5433 2
      vertex 33.9888 33.3334 2
    endloop
  endfacet
  facet normal 0 0 1
    outer loop
      vertex 34.5433 32.2961 2
      vertex 34.2915 32.8284 2
      vertex 33.9888 33.3334 2
    endloop
  endfacet
  facet normal 0 0 1
    outer loop
      vertex 32.3334 34.9888 2
      vertex 33.9888 33.3334 2
      vertex 33.638 33.8064 2
    endloop
  endfacet
  facet normal 0 0 1
    outer loop
      vertex 32.8064 34.6381 2
      vertex 33.638 33.8064 2
      vertex 33.2426 34.2426 2
    endloop
  endfacet
  facet normal 0 0 1
    outer loop
      vertex 32.3334 34.9888 2
      vertex 33.638 33.8064 2
      vertex 32.8064 34.6381 2
    endloop
  endfacet
  facet normal 0 0 1
    outer loop
      vertex 31.2961 35.5433 2
      vertex 34.5433 32.2961 2
      vertex 33.9888 33.3334 2
    endloop
  endfacet
  facet normal 0 0 1
    outer loop
      vertex 30.1705 35.8847 2
      vertex 34.5433 32.2961 2
      vertex 31.2961 35.5433 2
    endloop
  endfacet
  facet normal 0 0 1
    outer loop
      vertex 32.3334 34.9888 2
      vertex 31.8284 35.2915 2
      vertex 31.2961 35.5433 2
    endloop
  endfacet
  facet normal 0 0 1
    outer loop
      vertex 30.1705 35.8847 2
      vertex 31.2961 35.5433 2
      vertex 30.7417 35.7416 2
    endloop
  endfacet
  facet normal 0 0 1
    outer loop
      vertex 34.8847 31.1705 2
      vertex 34.5433 32.2961 2
      vertex 30.1705 35.8847 2
    endloop
  endfacet
  facet normal 0 0 1
    outer loop
      vertex 34.8847 31.1705 2
      vertex 30.1705 35.8847 2
      vertex 29 36 2
    endloop
  endfacet
  facet normal 0 0 1
    outer loop
      vertex 30.1705 35.8847 2
      vertex 29.5881 35.9711 2
      vertex 29 36 2
    endloop
  endfacet
  facet normal 0 0 1
    outer loop
      vertex 34.8847 31.1705 2
      vertex 29 36 2
      vertex 35 30 2
    endloop
  endfacet
  facet normal 0 0 1
    outer loop
      vertex 35 30 2
      vertex 29 36 2
      vertex -35 30 2
    endloop
  endfacet
  facet normal 0 0 1
    outer loop
      vertex 35 30 2
      vertex -35 30 2
      vertex 35 -30 2
    endloop
  endfacet
  facet normal -0 0 1
    outer loop
      vertex -29.5881 35.9711 2
      vertex -30.1705 35.8847 2
      vertex -29 36 2
    endloop
  endfacet
  facet normal 0 0 1
    outer loop
      vertex -30.1705 35.8847 2
      vertex -30.7417 35.7416 2
      vertex -31.2961 35.5433 2
    endloop
  endfacet
  facet normal -0 0 1
    outer loop
      vertex -33.9888 33.3334 2
      vertex -34.5433 32.2961 2
      vertex -32.3334 34.9888 2
    endloop
  endfacet
  facet normal 0 0 1
    outer loop
      vertex -31.2961 35.5433 2
      vertex -31.8284 35.2915 2
      vertex -32.3334 34.9888 2
    endloop
  endfacet
  facet normal 0 0 1
    outer loop
      vertex -33.9888 33.3334 2
      vertex -32.3334 34.9888 2
      vertex -32.8064 34.6381 2
    endloop
  endfacet
  facet normal 0 0 1
    outer loop
      vertex -33.638 33.8064 2
      vertex -32.8064 34.6381 2
      vertex -33.2426 34.2426 2
    endloop
  endfacet
  facet normal 0 0 1
    outer loop
      vertex -33.9888 33.3334 2
      vertex -32.8064 34.6381 2
      vertex -33.638 33.8064 2
    endloop
  endfacet
  facet normal 0 0 1
    outer loop
      vertex -34.5433 32.2961 2
      vertex -31.2961 35.5433 2
      vertex -32.3334 34.9888 2
    endloop
  endfacet
  facet normal 0 0 1
    outer loop
      vertex -34.8847 31.1705 2
      vertex -31.2961 35.5433 2
      vertex -34.5433 32.2961 2
    endloop
  endfacet
  facet normal 0 0 1
    outer loop
      vertex -33.9888 33.3334 2
      vertex -34.2915 32.8284 2
      vertex -34.5433 32.2961 2
    endloop
  endfacet
  facet normal 0 0 1
    outer loop
      vertex -34.8847 31.1705 2
      vertex -34.5433 32.2961 2
      vertex -34.7416 31.7417 2
    endloop
  endfacet
  facet normal 0 0 1
    outer loop
      vertex -30.1705 35.8847 2
      vertex -31.2961 35.5433 2
      vertex -34.8847 31.1705 2
    endloop
  endfacet
  facet normal 0 0 1
    outer loop
      vertex -30.1705 35.8847 2
      vertex -34.8847 31.1705 2
      vertex -35 30 2
    endloop
  endfacet
  facet normal 0 0 1
    outer loop
      vertex -34.8847 31.1705 2
      vertex -34.9711 30.5881 2
      vertex -35 30 2
    endloop
  endfacet
  facet normal -0 0 1
    outer loop
      vertex -30.1705 35.8847 2
      vertex -35 30 2
      vertex -29 36 2
    endloop
  endfacet
  facet normal 0 0 1
    outer loop
      vertex -35 30 2
      vertex -35 -30 2
      vertex 35 -30 2
    endloop
  endfacet
  facet normal -0 0 1
    outer loop
      vertex -35 -30 2
      vertex 29 -36 2
      vertex 35 -30 2
    endloop
  endfacet
  facet normal -0 -0 1
    outer loop
      vertex -34.9711 -30.5881 2
      vertex -34.8847 -31.1705 2
      vertex -35 -30 2
    endloop
  endfacet
  facet normal 0 0 1
    outer loop
      vertex -34.8847 -31.1705 2
      vertex -34.7416 -31.7417 2
      vertex -34.5433 -32.2961 2
    endloop
  endfacet
  facet normal 0 0 1
    outer loop
      vertex -32.3334 -34.9888 2
      vertex -34.5433 -32.2961 2
      vertex -33.9888 -33.3334 2
    endloop
  endfacet
  facet normal 0 0 1
    outer loop
      vertex -34.5433 -32.2961 2
      vertex -34.2915 -32.8284 2
      vertex -33.9888 -33.3334 2
    endloop
  endfacet
  facet normal 0 0 1
    outer loop
      vertex -32.3334 -34.9888 2
      vertex -33.9888 -33.3334 2
      vertex -32.8064 -34.6381 2
    endloop
  endfacet
  facet normal 0 0 1
    outer loop
      vertex -32.8064 -34.6381 2
      vertex -33.638 -33.8064 2
      vertex -33.2426 -34.2426 2
    endloop
  endfacet
  facet normal 0 0 1
    outer loop
      vertex -33.9888 -33.3334 2
      vertex -33.638 -33.8064 2
      vertex -32.8064 -34.6381 2
    endloop
  endfacet
  facet normal 0 0 1
    outer loop
      vertex -31.2961 -35.5433 2
      vertex -34.5433 -32.2961 2
      vertex -32.3334 -34.9888 2
    endloop
  endfacet
  facet normal 0 0 1
    outer loop
      vertex -34.8847 -31.1705 2
      vertex -34.5433 -32.2961 2
      vertex -31.2961 -35.5433 2
    endloop
  endfacet
  facet normal 0 0 1
    outer loop
      vertex -32.3334 -34.9888 2
      vertex -31.8284 -35.2915 2
      vertex -31.2961 -35.5433 2
    endloop
  endfacet
  facet normal 0 0 1
    outer loop
      vertex -30.1705 -35.8847 2
      vertex -31.2961 -35.5433 2
      vertex -30.7417 -35.7416 2
    endloop
  endfacet
  facet normal 0 0 1
    outer loop
      vertex -34.8847 -31.1705 2
      vertex -31.2961 -35.5433 2
      vertex -30.1705 -35.8847 2
    endloop
  endfacet
  facet normal -0 -0 1
    outer loop
      vertex -34.8847 -31.1705 2
      vertex -30.1705 -35.8847 2
      vertex -35 -30 2
    endloop
  endfacet
  facet normal 0 0 1
    outer loop
      vertex -30.1705 -35.8847 2
      vertex -29.5881 -35.9711 2
      vertex -29 -36 2
    endloop
  endfacet
  facet normal -0 -0 1
    outer loop
      vertex -30.1705 -35.8847 2
      vertex -29 -36 2
      vertex -35 -30 2
    endloop
  endfacet
  facet normal 0 -0 1
    outer loop
      vertex -29 -36 2
      vertex 29 -36 2
      vertex -35 -30 2
    endloop
  endfacet
  facet normal 0.146746 -0.989174 0
    outer loop
      vertex 30.1705 -35.8847 0
      vertex 29.5881 -35.9711 2
      vertex 29.5881 -35.9711 0
    endloop
  endfacet
  facet normal 0.146746 -0.989174 0
    outer loop
      vertex 30.1705 -35.8847 0
      vertex 30.1705 -35.8847 2
      vertex 29.5881 -35.9711 2
    endloop
  endfacet
  facet normal 0.243015 -0.970023 0
    outer loop
      vertex 30.7417 -35.7416 0
      vertex 30.1705 -35.8847 2
      vertex 30.1705 -35.8847 0
    endloop
  endfacet
  facet normal 0.243015 -0.970023 0
    outer loop
      vertex 30.7417 -35.7416 0
      vertex 30.7417 -35.7416 2
      vertex 30.1705 -35.8847 2
    endloop
  endfacet
  facet normal 0.336788 -0.94158 0
    outer loop
      vertex 31.2961 -35.5433 0
      vertex 30.7417 -35.7416 2
      vertex 30.7417 -35.7416 0
    endloop
  endfacet
  facet normal 0.336788 -0.94158 0
    outer loop
      vertex 31.2961 -35.5433 0
      vertex 31.2961 -35.5433 2
      vertex 30.7417 -35.7416 2
    endloop
  endfacet
  facet normal 0.427612 -0.903962 0
    outer loop
      vertex 31.8284 -35.2915 0
      vertex 31.2961 -35.5433 2
      vertex 31.2961 -35.5433 0
    endloop
  endfacet
  facet normal 0.427612 -0.903962 0
    outer loop
      vertex 31.8284 -35.2915 0
      vertex 31.8284 -35.2915 2
      vertex 31.2961 -35.5433 2
    endloop
  endfacet
  facet normal 0.514121 -0.857718 0
    outer loop
      vertex 32.3334 -34.9888 0
      vertex 31.8284 -35.2915 2
      vertex 31.8284 -35.2915 0
    endloop
  endfacet
  facet normal 0.514121 -0.857718 0
    outer loop
      vertex 32.3334 -34.9888 0
      vertex 32.3334 -34.9888 2
      vertex 31.8284 -35.2915 2
    endloop
  endfacet
  facet normal 0.595589 -0.803289 0
    outer loop
      vertex 32.8064 -34.6381 0
      vertex 32.3334 -34.9888 2
      vertex 32.3334 -34.9888 0
    endloop
  endfacet
  facet normal 0.595589 -0.803289 0
    outer loop
      vertex 32.8064 -34.6381 0
      vertex 32.8064 -34.6381 2
      vertex 32.3334 -34.9888 2
    endloop
  endfacet
  facet normal 0.6717 -0.740823 0
    outer loop
      vertex 33.2426 -34.2426 0
      vertex 32.8064 -34.6381 2
      vertex 32.8064 -34.6381 0
    endloop
  endfacet
  facet normal 0.6717 -0.740823 0
    outer loop
      vertex 33.2426 -34.2426 0
      vertex 33.2426 -34.2426 2
      vertex 32.8064 -34.6381 2
    endloop
  endfacet
  facet normal 0.740908 -0.671607 0
    outer loop
      vertex 33.638 -33.8064 0
      vertex 33.2426 -34.2426 2
      vertex 33.2426 -34.2426 0
    endloop
  endfacet
  facet normal 0.740908 -0.671607 0
    outer loop
      vertex 33.638 -33.8064 0
      vertex 33.638 -33.8064 2
      vertex 33.2426 -34.2426 2
    endloop
  endfacet
  facet normal 0.803208 -0.595699 0
    outer loop
      vertex 33.9888 -33.3334 0
      vertex 33.638 -33.8064 2
      vertex 33.638 -33.8064 0
    endloop
  endfacet
  facet normal 0.803208 -0.595699 0
    outer loop
      vertex 33.9888 -33.3334 0
      vertex 33.9888 -33.3334 2
      vertex 33.638 -33.8064 2
    endloop
  endfacet
  facet normal 0.857718 -0.514121 0
    outer loop
      vertex 34.2915 -32.8284 0
      vertex 33.9888 -33.3334 2
      vertex 33.9888 -33.3334 0
    endloop
  endfacet
  facet normal 0.857718 -0.514121 0
    outer loop
      vertex 34.2915 -32.8284 0
      vertex 34.2915 -32.8284 2
      vertex 33.9888 -33.3334 2
    endloop
  endfacet
  facet normal 0.903962 -0.427612 0
    outer loop
      vertex 34.5433 -32.2961 0
      vertex 34.2915 -32.8284 2
      vertex 34.2915 -32.8284 0
    endloop
  endfacet
  facet normal 0.903962 -0.427612 0
    outer loop
      vertex 34.5433 -32.2961 0
      vertex 34.5433 -32.2961 2
      vertex 34.2915 -32.8284 2
    endloop
  endfacet
  facet normal 0.94158 -0.336788 0
    outer loop
      vertex 34.7416 -31.7417 0
      vertex 34.5433 -32.2961 2
      vertex 34.5433 -32.2961 0
    endloop
  endfacet
  facet normal 0.94158 -0.336788 0
    outer loop
      vertex 34.7416 -31.7417 0
      vertex 34.7416 -31.7417 2
      vertex 34.5433 -32.2961 2
    endloop
  endfacet
  facet normal 0.970023 -0.243015 0
    outer loop
      vertex 34.8847 -31.1705 0
      vertex 34.7416 -31.7417 2
      vertex 34.7416 -31.7417 0
    endloop
  endfacet
  facet normal 0.970023 -0.243015 0
    outer loop
      vertex 34.8847 -31.1705 0
      vertex 34.8847 -31.1705 2
      vertex 34.7416 -31.7417 2
    endloop
  endfacet
  facet normal 0.989174 -0.146746 0
    outer loop
      vertex 34.9711 -30.5881 0
      vertex 34.8847 -31.1705 2
      vertex 34.8847 -31.1705 0
    endloop
  endfacet
  facet normal 0.989174 -0.146746 0
    outer loop
      vertex 34.9711 -30.5881 0
      vertex 34.9711 -30.5881 2
      vertex 34.8847 -31.1705 2
    endloop
  endfacet
  facet normal 0.998795 -0.0490821 0
    outer loop
      vertex 35 -30 0
      vertex 34.9711 -30.5881 2
      vertex 34.9711 -30.5881 0
    endloop
  endfacet
  facet normal 0.998795 -0.0490821 0
    outer loop
      vertex 35 -30 0
      vertex 35 -30 2
      vertex 34.9711 -30.5881 2
    endloop
  endfacet
  facet normal 1 0 0
    outer loop
      vertex 35 30 0
      vertex 35 -30 2
      vertex 35 -30 0
    endloop
  endfacet
  facet normal 1 0 -0
    outer loop
      vertex 35 30 0
      vertex 35 30 2
      vertex 35 -30 2
    endloop
  endfacet
  facet normal 0.998795 0.0490821 0
    outer loop
      vertex 34.9711 30.5881 0
      vertex 35 30 2
      vertex 35 30 0
    endloop
  endfacet
  facet normal 0.998795 0.0490821 -0
    outer loop
      vertex 34.9711 30.5881 0
      vertex 34.9711 30.5881 2
      vertex 35 30 2
    endloop
  endfacet
  facet normal 0.989174 0.146746 0
    outer loop
      vertex 34.8847 31.1705 0
      vertex 34.9711 30.5881 2
      vertex 34.9711 30.5881 0
    endloop
  endfacet
  facet normal 0.989174 0.146746 -0
    outer loop
      vertex 34.8847 31.1705 0
      vertex 34.8847 31.1705 2
      vertex 34.9711 30.5881 2
    endloop
  endfacet
  facet normal 0.970023 0.243015 0
    outer loop
      vertex 34.7416 31.7417 0
      vertex 34.8847 31.1705 2
      vertex 34.8847 31.1705 0
    endloop
  endfacet
  facet normal 0.970023 0.243015 -0
    outer loop
      vertex 34.7416 31.7417 0
      vertex 34.7416 31.7417 2
      vertex 34.8847 31.1705 2
    endloop
  endfacet
  facet normal 0.94158 0.336788 0
    outer loop
      vertex 34.5433 32.2961 0
      vertex 34.7416 31.7417 2
      vertex 34.7416 31.7417 0
    endloop
  endfacet
  facet normal 0.94158 0.336788 -0
    outer loop
      vertex 34.5433 32.2961 0
      vertex 34.5433 32.2961 2
      vertex 34.7416 31.7417 2
    endloop
  endfacet
  facet normal 0.903962 0.427612 0
    outer loop
      vertex 34.2915 32.8284 0
      vertex 34.5433 32.2961 2
      vertex 34.5433 32.2961 0
    endloop
  endfacet
  facet normal 0.903962 0.427612 -0
    outer loop
      vertex 34.2915 32.8284 0
      vertex 34.2915 32.8284 2
      vertex 34.5433 32.2961 2
    endloop
  endfacet
  facet normal 0.857718 0.514121 0
    outer loop
      vertex 33.9888 33.3334 0
      vertex 34.2915 32.8284 2
      vertex 34.2915 32.8284 0
    endloop
  endfacet
  facet normal 0.857718 0.514121 -0
    outer loop
      vertex 33.9888 33.3334 0
      vertex 33.9888 33.3334 2
      vertex 34.2915 32.8284 2
    endloop
  endfacet
  facet normal 0.803208 0.595699 0
    outer loop
      vertex 33.638 33.8064 0
      vertex 33.9888 33.3334 2
      vertex 33.9888 33.3334 0
    endloop
  endfacet
  facet normal 0.803208 0.595699 -0
    outer loop
      vertex 33.638 33.8064 0
      vertex 33.638 33.8064 2
      vertex 33.9888 33.3334 2
    endloop
  endfacet
  facet normal 0.740908 0.671607 0
    outer loop
      vertex 33.2426 34.2426 0
      vertex 33.638 33.8064 2
      vertex 33.638 33.8064 0
    endloop
  endfacet
  facet normal 0.740908 0.671607 -0
    outer loop
      vertex 33.2426 34.2426 0
      vertex 33.2426 34.2426 2
      vertex 33.638 33.8064 2
    endloop
  endfacet
  facet normal 0.6717 0.740823 0
    outer loop
      vertex 32.8064 34.6381 0
      vertex 33.2426 34.2426 2
      vertex 33.2426 34.2426 0
    endloop
  endfacet
  facet normal 0.6717 0.740823 -0
    outer loop
      vertex 32.8064 34.6381 0
      vertex 32.8064 34.6381 2
      vertex 33.2426 34.2426 2
    endloop
  endfacet
  facet normal 0.595589 0.803289 0
    outer loop
      vertex 32.3334 34.9888 0
      vertex 32.8064 34.6381 2
      vertex 32.8064 34.6381 0
    endloop
  endfacet
  facet normal 0.595589 0.803289 -0
    outer loop
      vertex 32.3334 34.9888 0
      vertex 32.3334 34.9888 2
      vertex 32.8064 34.6381 2
    endloop
  endfacet
  facet normal 0.514121 0.857718 0
    outer loop
      vertex 31.8284 35.2915 0
      vertex 32.3334 34.9888 2
      vertex 32.3334 34.9888 0
    endloop
  endfacet
  facet normal 0.514121 0.857718 -0
    outer loop
      vertex 31.8284 35.2915 0
      vertex 31.8284 35.2915 2
      vertex 32.3334 34.9888 2
    endloop
  endfacet
  facet normal 0.427612 0.903962 0
    outer loop
      vertex 31.2961 35.5433 0
      vertex 31.8284 35.2915 2
      vertex 31.8284 35.2915 0
    endloop
  endfacet
  facet normal 0.427612 0.903962 -0
    outer loop
      vertex 31.2961 35.5433 0
      vertex 31.2961 35.5433 2
      vertex 31.8284 35.2915 2
    endloop
  endfacet
  facet normal 0.336788 0.94158 0
    outer loop
      vertex 30.7417 35.7416 0
      vertex 31.2961 35.5433 2
      vertex 31.2961 35.5433 0
    endloop
  endfacet
  facet normal 0.336788 0.94158 -0
    outer loop
      vertex 30.7417 35.7416 0
      vertex 30.7417 35.7416 2
      vertex 31.2961 35.5433 2
    endloop
  endfacet
  facet normal 0.243015 0.970023 0
    outer loop
      vertex 30.1705 35.8847 0
      vertex 30.7417 35.7416 2
      vertex 30.7417 35.7416 0
    endloop
  endfacet
  facet normal 0.243015 0.970023 -0
    outer loop
      vertex 30.1705 35.8847 0
      vertex 30.1705 35.8847 2
      vertex 30.7417 35.7416 2
    endloop
  endfacet
  facet normal 0.146746 0.989174 0
    outer loop
      vertex 29.5881 35.9711 0
      vertex 30.1705 35.8847 2
      vertex 30.1705 35.8847 0
    endloop
  endfacet
  facet normal 0.146746 0.989174 -0
    outer loop
      vertex 29.5881 35.9711 0
      vertex 29.5881 35.9711 2
      vertex 30.1705 35.8847 2
    endloop
  endfacet
  facet normal 0.0490821 0.998795 0
    outer loop
      vertex 29 36 0
      vertex 29.5881 35.9711 2
      vertex 29.5881 35.9711 0
    endloop
  endfacet
  facet normal 0.0490821 0.998795 -0
    outer loop
      vertex 29 36 0
      vertex 29 36 2
      vertex 29.5881 35.9711 2
    endloop
  endfacet
  facet normal 0 1 0
    outer loop
      vertex -29 36 0
      vertex 29 36 2
      vertex 29 36 0
    endloop
  endfacet
  facet normal 0 1 0
    outer loop
      vertex -29 36 0
      vertex -29 36 2
      vertex 29 36 2
    endloop
  endfacet
  facet normal -0.0490821 0.998795 0
    outer loop
      vertex -29.5881 35.9711 0
      vertex -29 36 2
      vertex -29 36 0
    endloop
  endfacet
  facet normal -0.0490821 0.998795 0
    outer loop
      vertex -29.5881 35.9711 0
      vertex -29.5881 35.9711 2
      vertex -29 36 2
    endloop
  endfacet
  facet normal -0.146746 0.989174 0
    outer loop
      vertex -30.1705 35.8847 0
      vertex -29.5881 35.9711 2
      vertex -29.5881 35.9711 0
    endloop
  endfacet
  facet normal -0.146746 0.989174 0
    outer loop
      vertex -30.1705 35.8847 0
      vertex -30.1705 35.8847 2
      vertex -29.5881 35.9711 2
    endloop
  endfacet
  facet normal -0.243015 0.970023 0
    outer loop
      vertex -30.7417 35.7416 0
      vertex -30.1705 35.8847 2
      vertex -30.1705 35.8847 0
    endloop
  endfacet
  facet normal -0.243015 0.970023 0
    outer loop
      vertex -30.7417 35.7416 0
      vertex -30.7417 35.7416 2
      vertex -30.1705 35.8847 2
    endloop
  endfacet
  facet normal -0.336788 0.94158 0
    outer loop
      vertex -31.2961 35.5433 0
      vertex -30.7417 35.7416 2
      vertex -30.7417 35.7416 0
    endloop
  endfacet
  facet normal -0.336788 0.94158 0
    outer loop
      vertex -31.2961 35.5433 0
      vertex -31.2961 35.5433 2
      vertex -30.7417 35.7416 2
    endloop
  endfacet
  facet normal -0.427612 0.903962 0
    outer loop
      vertex -31.8284 35.2915 0
      vertex -31.2961 35.5433 2
      vertex -31.2961 35.5433 0
    endloop
  endfacet
  facet normal -0.427612 0.903962 0
    outer loop
      vertex -31.8284 35.2915 0
      vertex -31.8284 35.2915 2
      vertex -31.2961 35.5433 2
    endloop
  endfacet
  facet normal -0.514121 0.857718 0
    outer loop
      vertex -32.3334 34.9888 0
      vertex -31.8284 35.2915 2
      vertex -31.8284 35.2915 0
    endloop
  endfacet
  facet normal -0.514121 0.857718 0
    outer loop
      vertex -32.3334 34.9888 0
      vertex -32.3334 34.9888 2
      vertex -31.8284 35.2915 2
    endloop
  endfacet
  facet normal -0.595589 0.803289 0
    outer loop
      vertex -32.8064 34.6381 0
      vertex -32.3334 34.9888 2
      vertex -32.3334 34.9888 0
    endloop
  endfacet
  facet normal -0.595589 0.803289 0
    outer loop
      vertex -32.8064 34.6381 0
      vertex -32.8064 34.6381 2
      vertex -32.3334 34.9888 2
    endloop
  endfacet
  facet normal -0.6717 0.740823 0
    outer loop
      vertex -33.2426 34.2426 0
      vertex -32.8064 34.6381 2
      vertex -32.8064 34.6381 0
    endloop
  endfacet
  facet normal -0.6717 0.740823 0
    outer loop
      vertex -33.2426 34.2426 0
      vertex -33.2426 34.2426 2
      vertex -32.8064 34.6381 2
    endloop
  endfacet
  facet normal -0.740908 0.671607 0
    outer loop
      vertex -33.638 33.8064 0
      vertex -33.2426 34.2426 2
      vertex -33.2426 34.2426 0
    endloop
  endfacet
  facet normal -0.740908 0.671607 0
    outer loop
      vertex -33.638 33.8064 0
      vertex -33.638 33.8064 2
      vertex -33.2426 34.2426 2
    endloop
  endfacet
  facet normal -0.803208 0.595699 0
    outer loop
      vertex -33.9888 33.3334 0
      vertex -33.638 33.8064 2
      vertex -33.638 33.8064 0
    endloop
  endfacet
  facet normal -0.803208 0.595699 0
    outer loop
      vertex -33.9888 33.3334 0
      vertex -33.9888 33.3334 2
      vertex -33.638 33.8064 2
    endloop
  endfacet
  facet normal -0.857718 0.514121 0
    outer loop
      vertex -34.2915 32.8284 0
      vertex -33.9888 33.3334 2
      vertex -33.9888 33.3334 0
    endloop
  endfacet
  facet normal -0.857718 0.514121 0
    outer loop
      vertex -34.2915 32.8284 0
      vertex -34.2915 32.8284 2
      vertex -33.9888 33.3334 2
    endloop
  endfacet
  facet normal -0.903962 0.427612 0
    outer loop
      vertex -34.5433 32.2961 0
      vertex -34.2915 32.8284 2
      vertex -34.2915 32.8284 0
    endloop
  endfacet
  facet normal -0.903962 0.427612 0
    outer loop
      vertex -34.5433 32.2961 0
      vertex -34.5433 32.2961 2
      vertex -34.2915 32.8284 2
    endloop
  endfacet
  facet normal -0.94158 0.336788 0
    outer loop
      vertex -34.7416 31.7417 0
      vertex -34.5433 32.2961 2
      vertex -34.5433 32.2961 0
    endloop
  endfacet
  facet normal -0.94158 0.336788 0
    outer loop
      vertex -34.7416 31.7417 0
      vertex -34.7416 31.7417 2
      vertex -34.5433 32.2961 2
    endloop
  endfacet
  facet normal -0.970023 0.243015 0
    outer loop
      vertex -34.8847 31.1705 0
      vertex -34.7416 31.7417 2
      vertex -34.7416 31.7417 0
    endloop
  endfacet
  facet normal -0.970023 0.243015 0
    outer loop
      vertex -34.8847 31.1705 0
      vertex -34.8847 31.1705 2
      vertex -34.7416 31.7417 2
    endloop
  endfacet
  facet normal -0.989174 0.146746 0
    outer loop
      vertex -34.9711 30.5881 0
      vertex -34.8847 31.1705 2
      vertex -34.8847 31.1705 0
    endloop
  endfacet
  facet normal -0.989174 0.146746 0
    outer loop
      vertex -34.9711 30.5881 0
      vertex -34.9711 30.5881 2
      vertex -34.8847 31.1705 2
    endloop
  endfacet
  facet normal -0.998795 0.0490821 0
    outer loop
      vertex -35 30 0
      vertex -34.9711 30.5881 2
      vertex -34.9711 30.5881 0
    endloop
  endfacet
  facet normal -0.998795 0.0490821 0
    outer loop
      vertex -35 30 0
      vertex -35 30 2
      vertex -34.9711 30.5881 2
    endloop
  endfacet
  facet normal -1 0 0
    outer loop
      vertex -35 -30 0
      vertex -35 30 2
      vertex -35 30 0
    endloop
  endfacet
  facet normal -1 0 0
    outer loop
      vertex -35 -30 0
      vertex -35 -30 2
      vertex -35 30 2
    endloop
  endfacet
  facet normal -0.998795 -0.0490821 0
    outer loop
      vertex -34.9711 -30.5881 0
      vertex -35 -30 2
      vertex -35 -30 0
    endloop
  endfacet
  facet normal -0.998795 -0.0490821 0
    outer loop
      vertex -34.9711 -30.5881 0
      vertex -34.9711 -30.5881 2
      vertex -35 -30 2
    endloop
  endfacet
  facet normal -0.989174 -0.146746 0
    outer loop
      vertex -34.8847 -31.1705 0
      vertex -34.9711 -30.5881 2
      vertex -34.9711 -30.5881 0
    endloop
  endfacet
  facet normal -0.989174 -0.146746 0
    outer loop
      vertex -34.8847 -31.1705 0
      vertex -34.8847 -31.1705 2
      vertex -34.9711 -30.5881 2
    endloop
  endfacet
  facet normal -0.970023 -0.243015 0
    outer loop
      vertex -34.7416 -31.7417 0
      vertex -34.8847 -31.1705 2
      vertex -34.8847 -31.1705 0
    endloop
  endfacet
  facet normal -0.970023 -0.243015 0
    outer loop
      vertex -34.7416 -31.7417 0
      vertex -34.7416 -31.7417 2
      vertex -34.8847 -31.1705 2
    endloop
  endfacet
  facet normal -0.94158 -0.336788 0
    outer loop
      vertex -34.5433 -32.2961 0
      vertex -34.7416 -31.7417 2
      vertex -34.7416 -31.7417 0
    endloop
  endfacet
  facet normal -0.94158 -0.336788 0
    outer loop
      vertex -34.5433 -32.2961 0
      vertex -34.5433 -32.2961 2
      vertex -34.7416 -31.7417 2
    endloop
  endfacet
  facet normal -0.903962 -0.427612 0
    outer loop
      vertex -34.2915 -32.8284 0
      vertex -34.5433 -32.2961 2
      vertex -34.5433 -32.2961 0
    endloop
  endfacet
  facet normal -0.903962 -0.427612 0
    outer loop
      vertex -34.2915 -32.8284 0
      vertex -34.2915 -32.8284 2
      vertex -34.5433 -32.2961 2
    endloop
  endfacet
  facet normal -0.857718 -0.514121 0
    outer loop
      vertex -33.9888 -33.3334 0
      vertex -34.2915 -32.8284 2
      vertex -34.2915 -32.8284 0
    endloop
  endfacet
  facet normal -0.857718 -0.514121 0
    outer loop
      vertex -33.9888 -33.3334 0
      vertex -33.9888 -33.3334 2
      vertex -34.2915 -32.8284 2
    endloop
  endfacet
  facet normal -0.803208 -0.595699 0
    outer loop
      vertex -33.638 -33.8064 0
      vertex -33.9888 -33.3334 2
      vertex -33.9888 -33.3334 0
    endloop
  endfacet
  facet normal -0.803208 -0.595699 0
    outer loop
      vertex -33.638 -33.8064 0
      vertex -33.638 -33.8064 2
      vertex -33.9888 -33.3334 2
    endloop
  endfacet
  facet normal -0.740908 -0.671607 0
    outer loop
      vertex -33.2426 -34.2426 0
      vertex -33.638 -33.8064 2
      vertex -33.638 -33.8064 0
    endloop
  endfacet
  facet normal -0.740908 -0.671607 0
    outer loop
      vertex -33.2426 -34.2426 0
      vertex -33.2426 -34.2426 2
      vertex -33.638 -33.8064 2
    endloop
  endfacet
  facet normal -0.6717 -0.740823 0
    outer loop
      vertex -32.8064 -34.6381 0
      vertex -33.2426 -34.2426 2
      vertex -33.2426 -34.2426 0
    endloop
  endfacet
  facet normal -0.6717 -0.740823 0
    outer loop
      vertex -32.8064 -34.6381 0
      vertex -32.8064 -34.6381 2
      vertex -33.2426 -34.2426 2
    endloop
  endfacet
  facet normal -0.595589 -0.803289 0
    outer loop
      vertex -32.3334 -34.9888 0
      vertex -32.8064 -34.6381 2
      vertex -32.8064 -34.6381 0
    endloop
  endfacet
  facet normal -0.595589 -0.803289 0
    outer loop
      vertex -32.3334 -34.9888 0
      vertex -32.3334 -34.9888 2
      vertex -32.8064 -34.6381 2
    endloop
  endfacet
  facet normal -0.514121 -0.857718 0
    outer loop
      vertex -31.8284 -35.2915 0
      vertex -32.3334 -34.9888 2
      vertex -32.3334 -34.9888 0
    endloop
  endfacet
  facet normal -0.514121 -0.857718 0
    outer loop
      vertex -31.8284 -35.2915 0
      vertex -31.8284 -35.2915 2
      vertex -32.3334 -34.9888 2
    endloop
  endfacet
  facet normal -0.427612 -0.903962 0
    outer loop
      vertex -31.2961 -35.5433 0
      vertex -31.8284 -35.2915 2
      vertex -31.8284 -35.2915 0
    endloop
  endfacet
  facet normal -0.427612 -0.903962 0
    outer loop
      vertex -31.2961 -35.5433 0
      vertex -31.2961 -35.5433 2
      vertex -31.8284 -35.2915 2
    endloop
  endfacet
  facet normal -0.336788 -0.94158 0
    outer loop
      vertex -30.7417 -35.7416 0
      vertex -31.2961 -35.5433 2
      vertex -31.2961 -35.5433 0
    endloop
  endfacet
  facet normal -0.336788 -0.94158 0
    outer loop
      vertex -30.7417 -35.7416 0
      vertex -30.7417 -35.7416 2
      vertex -31.2961 -35.5433 2
    endloop
  endfacet
  facet normal -0.243015 -0.970023 0
    outer loop
      vertex -30.1705 -35.8847 0
      vertex -30.7417 -35.7416 2
      vertex -30.7417 -35.7416 0
    endloop
  endfacet
  facet normal -0.243015 -0.970023 0
    outer loop
      vertex -30.1705 -35.8847 0
      vertex -30.1705 -35.8847 2
      vertex -30.7417 -35.7416 2
    endloop
  endfacet
  facet normal -0.146746 -0.989174 0
    outer loop
      vertex -29.5881 -35.9711 0
      vertex -30.1705 -35.8847 2
      vertex -30.1705 -35.8847 0
    endloop
  endfacet
  facet normal -0.146746 -0.989174 0
    outer loop
      vertex -29.5881 -35.9711 0
      vertex -29.5881 -35.9711 2
      vertex -30.1705 -35.8847 2
    endloop
  endfacet
  facet normal -0.0490821 -0.998795 0
    outer loop
      vertex -29 -36 0
      vertex -29.5881 -35.9711 2
      vertex -29.5881 -35.9711 0
    endloop
  endfacet
  facet normal -0.0490821 -0.998795 0
    outer loop
      vertex -29 -36 0
      vertex -29 -36 2
      vertex -29.5881 -35.9711 2
    endloop
  endfacet
  facet normal 0 -1 0
    outer loop
      vertex 29 -36 0
      vertex -29 -36 2
      vertex -29 -36 0
    endloop
  endfacet
  facet normal 0 -1 0
    outer loop
      vertex 29 -36 0
      vertex 29 -36 2
      vertex -29 -36 2
    endloop
  endfacet
  facet normal 0.0490821 -0.998795 0
    outer loop
      vertex 29.5881 -35.9711 0
      vertex 29 -36 2
      vertex 29 -36 0
    endloop
  endfacet
  facet normal 0.0490821 -0.998795 0
    outer loop
      vertex 29.5881 -35.9711 0
      vertex 29.5881 -35.9711 2
      vertex 29 -36 2
    endloop
  endfacet
endsolid OpenSCAD_Model
