solid OpenSCAD_Model
  facet normal 1 -0 0
    outer loop
      vertex 13.75 -1 3.9
      vertex 13.75 1 -3.9
      vertex 13.75 1 3.9
    endloop
  endfacet
  facet normal 1 0 0
    outer loop
      vertex 13.75 1 -3.9
      vertex 13.75 -1 3.9
      vertex 13.75 -1 -3.9
    endloop
  endfacet
  facet normal 1 0 0
    outer loop
      vertex 13.75 1 3.9
      vertex 13.75 3.4 6
      vertex 13.75 1 6
    endloop
  endfacet
  facet normal 1 0 0
    outer loop
      vertex 13.75 3.4 6
      vertex 13.75 1 3.9
      vertex 13.75 3.4 -6
    endloop
  endfacet
  facet normal 1 -0 0
    outer loop
      vertex 13.75 1 -3.9
      vertex 13.75 3.4 -6
      vertex 13.75 1 3.9
    endloop
  endfacet
  facet normal 1 0 0
    outer loop
      vertex 13.75 3.4 -6
      vertex 13.75 1 -3.9
      vertex 13.75 1 -6
    endloop
  endfacet
  facet normal -0 0 1
    outer loop
      vertex -13.75 1 3.9
      vertex 13.75 -1 3.9
      vertex 13.75 1 3.9
    endloop
  endfacet
  facet normal 0 0 1
    outer loop
      vertex 13.75 -1 3.9
      vertex -13.75 1 3.9
      vertex -13.75 -1 3.9
    endloop
  endfacet
  facet normal 0 0 -1
    outer loop
      vertex -13.75 -1 -3.9
      vertex 13.75 1 -3.9
      vertex 13.75 -1 -3.9
    endloop
  endfacet
  facet normal -0 0 -1
    outer loop
      vertex 13.75 1 -3.9
      vertex -13.75 -1 -3.9
      vertex -13.75 1 -3.9
    endloop
  endfacet
  facet normal -1 0 0
    outer loop
      vertex -13.75 -1 -3.9
      vertex -13.75 1 3.9
      vertex -13.75 1 -3.9
    endloop
  endfacet
  facet normal -1 -0 0
    outer loop
      vertex -13.75 1 3.9
      vertex -13.75 -1 -3.9
      vertex -13.75 -1 3.9
    endloop
  endfacet
  facet normal -1 0 0
    outer loop
      vertex -13.75 1 -3.9
      vertex -13.75 3.4 -6
      vertex -13.75 1 -6
    endloop
  endfacet
  facet normal -1 0 0
    outer loop
      vertex -13.75 3.4 -6
      vertex -13.75 1 -3.9
      vertex -13.75 3.4 6
    endloop
  endfacet
  facet normal -1 0 0
    outer loop
      vertex -13.75 1 3.9
      vertex -13.75 3.4 6
      vertex -13.75 1 -3.9
    endloop
  endfacet
  facet normal -1 -0 0
    outer loop
      vertex -13.75 3.4 6
      vertex -13.75 1 3.9
      vertex -13.75 1 6
    endloop
  endfacet
  facet normal 0 -1 0
    outer loop
      vertex -13.75 1 3.9
      vertex 13.75 1 6
      vertex -13.75 1 6
    endloop
  endfacet
  facet normal 0 -1 -0
    outer loop
      vertex 13.75 1 6
      vertex -13.75 1 3.9
      vertex 13.75 1 3.9
    endloop
  endfacet
  facet normal 0 -1 0
    outer loop
      vertex -13.75 1 -6
      vertex 13.75 1 -3.9
      vertex -13.75 1 -3.9
    endloop
  endfacet
  facet normal 0 -1 -0
    outer loop
      vertex 13.75 1 -3.9
      vertex -13.75 1 -6
      vertex 13.75 1 -6
    endloop
  endfacet
  facet normal 0 -1 0
    outer loop
      vertex -13.75 -1 -3.9
      vertex 13.75 -1 3.9
      vertex -13.75 -1 3.9
    endloop
  endfacet
  facet normal 0 -1 -0
    outer loop
      vertex 13.75 -1 3.9
      vertex -13.75 -1 -3.9
      vertex 13.75 -1 -3.9
    endloop
  endfacet
  facet normal -0 0 1
    outer loop
      vertex -13.75 3.4 6
      vertex 13.75 1 6
      vertex 13.75 3.4 6
    endloop
  endfacet
  facet normal 0 0 1
    outer loop
      vertex 13.75 1 6
      vertex -13.75 3.4 6
      vertex -13.75 1 6
    endloop
  endfacet
  facet normal 0 0 -1
    outer loop
      vertex -13.75 1 -6
      vertex 13.75 3.4 -6
      vertex 13.75 1 -6
    endloop
  endfacet
  facet normal -0 0 -1
    outer loop
      vertex 13.75 3.4 -6
      vertex -13.75 1 -6
      vertex -13.75 3.4 -6
    endloop
  endfacet
  facet normal 0 1 -0
    outer loop
      vertex 13.75 3.4 -6
      vertex -13.75 3.4 6
      vertex 13.75 3.4 6
    endloop
  endfacet
  facet normal 0 1 0
    outer loop
      vertex -13.75 3.4 6
      vertex 13.75 3.4 -6
      vertex -13.75 3.4 -6
    endloop
  endfacet
endsolid OpenSCAD_Model
